<mxfile host="app.diagrams.net" modified="2024-05-14T18:44:10.528Z" agent="Mozilla/5.0 (Windows NT 10.0; Win64; x64) AppleWebKit/537.36 (KHTML, like Gecko) Chrome/124.0.0.0 Safari/537.36" etag="DK8DN5kvJgcB0AaEQGFR" version="24.4.0" type="google">
  <diagram name="Page-1" id="vJbila3OZULrWVCGVlef">
    <mxGraphModel grid="1" page="1" gridSize="10" guides="1" tooltips="1" connect="1" arrows="1" fold="1" pageScale="1" pageWidth="827" pageHeight="1169" math="0" shadow="0">
      <root>
        <mxCell id="0" />
        <mxCell id="1" parent="0" />
        <mxCell id="Ce8esL5eT33AXjcVNxqz-295" style="edgeStyle=orthogonalEdgeStyle;rounded=0;orthogonalLoop=1;jettySize=auto;html=1;exitX=0.5;exitY=1;exitDx=0;exitDy=0;entryX=0.5;entryY=0;entryDx=0;entryDy=0;" edge="1" parent="1" source="Ce8esL5eT33AXjcVNxqz-1" target="uzs_12xQnQwQcAluXUmT-34">
          <mxGeometry relative="1" as="geometry">
            <mxPoint x="414.42857142857156" y="2376.285679408482" as="targetPoint" />
            <mxPoint x="420" y="2114" as="sourcePoint" />
            <Array as="points">
              <mxPoint x="417" y="2101" />
            </Array>
          </mxGeometry>
        </mxCell>
        <mxCell id="Ce8esL5eT33AXjcVNxqz-1" value="" style="whiteSpace=wrap;html=1;fillColor=#CCFFE6;" vertex="1" parent="1">
          <mxGeometry x="20" y="1661" width="790" height="439" as="geometry" />
        </mxCell>
        <mxCell id="Ce8esL5eT33AXjcVNxqz-2" value="&lt;font style=&quot;font-size: 14px;&quot;&gt;&lt;b&gt;Service Layer&lt;/b&gt;&lt;/font&gt;" style="rounded=0;whiteSpace=wrap;html=1;fillColor=#3399FF;" vertex="1" parent="1">
          <mxGeometry x="20" y="1631" width="120" height="30" as="geometry" />
        </mxCell>
        <mxCell id="Ce8esL5eT33AXjcVNxqz-296" value="&lt;b&gt;requests service&lt;/b&gt;" style="text;html=1;align=center;verticalAlign=middle;whiteSpace=wrap;rounded=0;" vertex="1" parent="1">
          <mxGeometry x="410" y="2214" width="130" height="30" as="geometry" />
        </mxCell>
        <mxCell id="uzs_12xQnQwQcAluXUmT-18" value="&lt;font style=&quot;font-size: 14px;&quot;&gt;&lt;b&gt;ThirdPartyServices&lt;/b&gt;&lt;/font&gt;" style="rounded=0;whiteSpace=wrap;html=1;fillColor=#FFF2CC;" vertex="1" parent="1">
          <mxGeometry x="52" y="1674" width="149.5" height="30" as="geometry" />
        </mxCell>
        <mxCell id="uzs_12xQnQwQcAluXUmT-19" value="" style="whiteSpace=wrap;html=1;fillColor=#E1D5E7;" vertex="1" parent="1">
          <mxGeometry x="52.5" y="1704" width="287.5" height="166" as="geometry" />
        </mxCell>
        <mxCell id="Ce8esL5eT33AXjcVNxqz-285" value="&lt;b&gt;DeliveryService&lt;/b&gt;" style="swimlane;fontStyle=0;childLayout=stackLayout;horizontal=1;startSize=26;fillColor=#CCE5FF;horizontalStack=0;resizeParent=1;resizeParentMax=0;resizeLast=0;collapsible=1;marginBottom=0;whiteSpace=wrap;html=1;" vertex="1" parent="1">
          <mxGeometry x="71" y="1790" width="240" height="60" as="geometry" />
        </mxCell>
        <mxCell id="Ce8esL5eT33AXjcVNxqz-286" value="- marketService: MarketFacade" style="text;strokeColor=default;fillColor=#FFFFFF;align=left;verticalAlign=top;spacingLeft=4;spacingRight=4;overflow=hidden;rotatable=0;points=[[0,0.5],[1,0.5]];portConstraint=eastwest;whiteSpace=wrap;html=1;" vertex="1" parent="Ce8esL5eT33AXjcVNxqz-285">
          <mxGeometry y="26" width="240" height="34" as="geometry" />
        </mxCell>
        <mxCell id="Ce8esL5eT33AXjcVNxqz-283" value="&lt;b&gt;PaymentService&lt;/b&gt;" style="swimlane;fontStyle=0;childLayout=stackLayout;horizontal=1;startSize=26;fillColor=#CCE5FF;horizontalStack=0;resizeParent=1;resizeParentMax=0;resizeLast=0;collapsible=1;marginBottom=0;whiteSpace=wrap;html=1;" vertex="1" parent="1">
          <mxGeometry x="71" y="1717.5" width="210" height="60" as="geometry" />
        </mxCell>
        <mxCell id="Ce8esL5eT33AXjcVNxqz-284" value="- marketService: MarketFacade" style="text;strokeColor=default;fillColor=#FFFFFF;align=left;verticalAlign=top;spacingLeft=4;spacingRight=4;overflow=hidden;rotatable=0;points=[[0,0.5],[1,0.5]];portConstraint=eastwest;whiteSpace=wrap;html=1;" vertex="1" parent="Ce8esL5eT33AXjcVNxqz-283">
          <mxGeometry y="26" width="210" height="34" as="geometry" />
        </mxCell>
        <mxCell id="uzs_12xQnQwQcAluXUmT-23" value="" style="whiteSpace=wrap;html=1;fillColor=#E1D5E7;" vertex="1" parent="1">
          <mxGeometry x="449" y="1714" width="341" height="210" as="geometry" />
        </mxCell>
        <mxCell id="uzs_12xQnQwQcAluXUmT-21" value="&lt;b&gt;SearchService&lt;/b&gt;" style="swimlane;fontStyle=0;childLayout=stackLayout;horizontal=1;startSize=26;fillColor=#CCE5FF;horizontalStack=0;resizeParent=1;resizeParentMax=0;resizeLast=0;collapsible=1;marginBottom=0;whiteSpace=wrap;html=1;" vertex="1" parent="1">
          <mxGeometry x="476" y="1729" width="200" height="70" as="geometry" />
        </mxCell>
        <mxCell id="uzs_12xQnQwQcAluXUmT-22" value="- searchService: SearchFacade&lt;div&gt;- marketService: MarketFacade&lt;br&gt;&lt;/div&gt;" style="text;strokeColor=default;fillColor=#FFFFFF;align=left;verticalAlign=top;spacingLeft=4;spacingRight=4;overflow=hidden;rotatable=0;points=[[0,0.5],[1,0.5]];portConstraint=eastwest;whiteSpace=wrap;html=1;" vertex="1" parent="uzs_12xQnQwQcAluXUmT-21">
          <mxGeometry y="26" width="200" height="44" as="geometry" />
        </mxCell>
        <mxCell id="Ce8esL5eT33AXjcVNxqz-291" value="&lt;b&gt;PurchaseService&lt;/b&gt;" style="swimlane;fontStyle=0;childLayout=stackLayout;horizontal=1;startSize=26;fillColor=#CCE5FF;horizontalStack=0;resizeParent=1;resizeParentMax=0;resizeLast=0;collapsible=1;marginBottom=0;whiteSpace=wrap;html=1;" vertex="1" parent="1">
          <mxGeometry x="476" y="1833" width="235" height="70" as="geometry" />
        </mxCell>
        <mxCell id="Ce8esL5eT33AXjcVNxqz-292" value="- purchaseService: PurchaseFacade&lt;div&gt;- marketService: MarketFacade&lt;br&gt;&lt;/div&gt;" style="text;strokeColor=default;fillColor=#FFFFFF;align=left;verticalAlign=top;spacingLeft=4;spacingRight=4;overflow=hidden;rotatable=0;points=[[0,0.5],[1,0.5]];portConstraint=eastwest;whiteSpace=wrap;html=1;" vertex="1" parent="Ce8esL5eT33AXjcVNxqz-291">
          <mxGeometry y="26" width="235" height="44" as="geometry" />
        </mxCell>
        <mxCell id="uzs_12xQnQwQcAluXUmT-24" value="&lt;font style=&quot;font-size: 14px;&quot;&gt;&lt;b&gt;EcommerceServices&lt;/b&gt;&lt;/font&gt;" style="rounded=0;whiteSpace=wrap;html=1;fillColor=#FFF2CC;" vertex="1" parent="1">
          <mxGeometry x="449" y="1684" width="149.5" height="30" as="geometry" />
        </mxCell>
        <mxCell id="uzs_12xQnQwQcAluXUmT-25" value="" style="whiteSpace=wrap;html=1;fillColor=#E1D5E7;" vertex="1" parent="1">
          <mxGeometry x="52.5" y="1917" width="337.5" height="168" as="geometry" />
        </mxCell>
        <mxCell id="uzs_12xQnQwQcAluXUmT-26" value="&lt;span style=&quot;font-size: 14px;&quot;&gt;&lt;b&gt;UserServices&lt;/b&gt;&lt;/span&gt;" style="rounded=0;whiteSpace=wrap;html=1;fillColor=#FFF2CC;" vertex="1" parent="1">
          <mxGeometry x="52.5" y="1887" width="149.5" height="30" as="geometry" />
        </mxCell>
        <mxCell id="Ce8esL5eT33AXjcVNxqz-289" value="&lt;b&gt;UserService&lt;/b&gt;" style="swimlane;fontStyle=0;childLayout=stackLayout;horizontal=1;startSize=26;fillColor=#CCE5FF;horizontalStack=0;resizeParent=1;resizeParentMax=0;resizeLast=0;collapsible=1;marginBottom=0;whiteSpace=wrap;html=1;" vertex="1" parent="1">
          <mxGeometry x="64.75" y="1928" width="257" height="70" as="geometry" />
        </mxCell>
        <mxCell id="Ce8esL5eT33AXjcVNxqz-290" value="- userService: UserFacade&lt;br&gt;&lt;div&gt;&lt;span style=&quot;background-color: initial;&quot;&gt;- marketService: MarketFacade&lt;/span&gt;&amp;nbsp;&lt;/div&gt;" style="text;strokeColor=default;fillColor=#FFFFFF;align=left;verticalAlign=top;spacingLeft=4;spacingRight=4;overflow=hidden;rotatable=0;points=[[0,0.5],[1,0.5]];portConstraint=eastwest;whiteSpace=wrap;html=1;" vertex="1" parent="Ce8esL5eT33AXjcVNxqz-289">
          <mxGeometry y="26" width="257" height="44" as="geometry" />
        </mxCell>
        <mxCell id="uzs_12xQnQwQcAluXUmT-27" value="" style="whiteSpace=wrap;html=1;fillColor=#E1D5E7;" vertex="1" parent="1">
          <mxGeometry x="445.25" y="1982" width="287.5" height="90" as="geometry" />
        </mxCell>
        <mxCell id="Ce8esL5eT33AXjcVNxqz-287" value="&lt;b&gt;StoreService&lt;/b&gt;" style="swimlane;fontStyle=0;childLayout=stackLayout;horizontal=1;startSize=26;fillColor=#CCE5FF;horizontalStack=0;resizeParent=1;resizeParentMax=0;resizeLast=0;collapsible=1;marginBottom=0;whiteSpace=wrap;html=1;" vertex="1" parent="1">
          <mxGeometry x="468" y="1992" width="227" height="70" as="geometry" />
        </mxCell>
        <mxCell id="Ce8esL5eT33AXjcVNxqz-288" value="- storeService: StoreFacade&lt;div&gt;- marketService: MarketFacade&lt;br&gt;&lt;/div&gt;" style="text;strokeColor=default;fillColor=#FFFFFF;align=left;verticalAlign=top;spacingLeft=4;spacingRight=4;overflow=hidden;rotatable=0;points=[[0,0.5],[1,0.5]];portConstraint=eastwest;whiteSpace=wrap;html=1;" vertex="1" parent="Ce8esL5eT33AXjcVNxqz-287">
          <mxGeometry y="26" width="227" height="44" as="geometry" />
        </mxCell>
        <mxCell id="uzs_12xQnQwQcAluXUmT-28" value="&lt;span style=&quot;font-size: 14px;&quot;&gt;&lt;b&gt;StoreServices&lt;/b&gt;&lt;/span&gt;" style="rounded=0;whiteSpace=wrap;html=1;fillColor=#FFF2CC;" vertex="1" parent="1">
          <mxGeometry x="445.25" y="1952" width="149.5" height="30" as="geometry" />
        </mxCell>
        <mxCell id="uzs_12xQnQwQcAluXUmT-34" value="" style="whiteSpace=wrap;html=1;fillColor=#CCFFE6;" vertex="1" parent="1">
          <mxGeometry x="14" y="2360" width="806" height="1130" as="geometry" />
        </mxCell>
        <mxCell id="uzs_12xQnQwQcAluXUmT-35" value="&lt;font style=&quot;font-size: 14px;&quot;&gt;&lt;b&gt;Business Layer&lt;/b&gt;&lt;/font&gt;" style="rounded=0;whiteSpace=wrap;html=1;fillColor=#3399FF;" vertex="1" parent="1">
          <mxGeometry x="14" y="2344" width="120" height="26" as="geometry" />
        </mxCell>
        <mxCell id="uzs_12xQnQwQcAluXUmT-46" value="&lt;span style=&quot;text-align: left;&quot;&gt;&lt;b&gt;Address&lt;/b&gt;&lt;/span&gt;" style="swimlane;fontStyle=0;childLayout=stackLayout;horizontal=1;startSize=14;fillColor=#CCE5FF;horizontalStack=0;resizeParent=1;resizeParentMax=0;resizeLast=0;collapsible=1;marginBottom=0;whiteSpace=wrap;html=1;" vertex="1" parent="1">
          <mxGeometry x="666.38" y="2376" width="140" height="170" as="geometry" />
        </mxCell>
        <mxCell id="uzs_12xQnQwQcAluXUmT-47" value="- addressId: int" style="text;strokeColor=default;fillColor=#FFFFFF;align=left;verticalAlign=top;spacingLeft=4;spacingRight=4;overflow=hidden;rotatable=0;points=[[0,0.5],[1,0.5]];portConstraint=eastwest;whiteSpace=wrap;html=1;" vertex="1" parent="uzs_12xQnQwQcAluXUmT-46">
          <mxGeometry y="14" width="140" height="26" as="geometry" />
        </mxCell>
        <mxCell id="uzs_12xQnQwQcAluXUmT-48" value="- city: String" style="text;strokeColor=default;fillColor=#FFFFFF;align=left;verticalAlign=top;spacingLeft=4;spacingRight=4;overflow=hidden;rotatable=0;points=[[0,0.5],[1,0.5]];portConstraint=eastwest;whiteSpace=wrap;html=1;" vertex="1" parent="uzs_12xQnQwQcAluXUmT-46">
          <mxGeometry y="40" width="140" height="26" as="geometry" />
        </mxCell>
        <mxCell id="2L5cOaxwcJAvvOBqLWuJ-3" value="- country: String" style="text;strokeColor=default;fillColor=#FFFFFF;align=left;verticalAlign=top;spacingLeft=4;spacingRight=4;overflow=hidden;rotatable=0;points=[[0,0.5],[1,0.5]];portConstraint=eastwest;whiteSpace=wrap;html=1;" vertex="1" parent="uzs_12xQnQwQcAluXUmT-46">
          <mxGeometry y="66" width="140" height="26" as="geometry" />
        </mxCell>
        <mxCell id="uzs_12xQnQwQcAluXUmT-49" value="- street: String" style="text;strokeColor=default;fillColor=#FFFFFF;align=left;verticalAlign=top;spacingLeft=4;spacingRight=4;overflow=hidden;rotatable=0;points=[[0,0.5],[1,0.5]];portConstraint=eastwest;whiteSpace=wrap;html=1;" vertex="1" parent="uzs_12xQnQwQcAluXUmT-46">
          <mxGeometry y="92" width="140" height="26" as="geometry" />
        </mxCell>
        <mxCell id="uzs_12xQnQwQcAluXUmT-50" value="- zipCode: String" style="text;strokeColor=default;fillColor=#FFFFFF;align=left;verticalAlign=top;spacingLeft=4;spacingRight=4;overflow=hidden;rotatable=0;points=[[0,0.5],[1,0.5]];portConstraint=eastwest;whiteSpace=wrap;html=1;" vertex="1" parent="uzs_12xQnQwQcAluXUmT-46">
          <mxGeometry y="118" width="140" height="26" as="geometry" />
        </mxCell>
        <mxCell id="uzs_12xQnQwQcAluXUmT-51" value="- houseNumber: String" style="text;strokeColor=default;fillColor=#FFFFFF;align=left;verticalAlign=top;spacingLeft=4;spacingRight=4;overflow=hidden;rotatable=0;points=[[0,0.5],[1,0.5]];portConstraint=eastwest;whiteSpace=wrap;html=1;" vertex="1" parent="uzs_12xQnQwQcAluXUmT-46">
          <mxGeometry y="144" width="140" height="26" as="geometry" />
        </mxCell>
        <mxCell id="uzs_12xQnQwQcAluXUmT-53" value="" style="whiteSpace=wrap;html=1;fillColor=#E1D5E7;" vertex="1" parent="1">
          <mxGeometry x="525.25" y="2530" width="127.5" height="86" as="geometry" />
        </mxCell>
        <mxCell id="2L5cOaxwcJAvvOBqLWuJ-94" style="edgeStyle=orthogonalEdgeStyle;rounded=0;orthogonalLoop=1;jettySize=auto;html=1;exitX=0;exitY=0.25;exitDx=0;exitDy=0;endArrow=diamondThin;endFill=1;" edge="1" parent="1" source="uzs_12xQnQwQcAluXUmT-42" target="2L5cOaxwcJAvvOBqLWuJ-59">
          <mxGeometry relative="1" as="geometry">
            <Array as="points">
              <mxPoint x="450" y="2555" />
              <mxPoint x="450" y="2430" />
            </Array>
          </mxGeometry>
        </mxCell>
        <mxCell id="uzs_12xQnQwQcAluXUmT-42" value="&lt;b&gt;Notifier&lt;/b&gt;" style="swimlane;fontStyle=0;childLayout=stackLayout;horizontal=1;startSize=26;fillColor=#CCE5FF;horizontalStack=0;resizeParent=1;resizeParentMax=0;resizeLast=0;collapsible=1;marginBottom=0;whiteSpace=wrap;html=1;" vertex="1" parent="1">
          <mxGeometry x="552.5" y="2537" width="87" height="70" as="geometry" />
        </mxCell>
        <mxCell id="uzs_12xQnQwQcAluXUmT-43" value="" style="text;strokeColor=default;fillColor=#FFFFFF;align=left;verticalAlign=top;spacingLeft=4;spacingRight=4;overflow=hidden;rotatable=0;points=[[0,0.5],[1,0.5]];portConstraint=eastwest;whiteSpace=wrap;html=1;" vertex="1" parent="uzs_12xQnQwQcAluXUmT-42">
          <mxGeometry y="26" width="87" height="44" as="geometry" />
        </mxCell>
        <mxCell id="uzs_12xQnQwQcAluXUmT-56" value="&lt;font style=&quot;font-size: 14px;&quot;&gt;&lt;b&gt;Notifier&lt;/b&gt;&lt;/font&gt;" style="rounded=0;whiteSpace=wrap;html=1;fillColor=#FFF2CC;" vertex="1" parent="1">
          <mxGeometry x="525.25" y="2504" width="70" height="26" as="geometry" />
        </mxCell>
        <mxCell id="uzs_12xQnQwQcAluXUmT-57" value="" style="whiteSpace=wrap;html=1;fillColor=#E1D5E7;" vertex="1" parent="1">
          <mxGeometry x="24.5" y="2600" width="445.5" height="610" as="geometry" />
        </mxCell>
        <mxCell id="uzs_12xQnQwQcAluXUmT-58" value="&lt;font style=&quot;font-size: 14px;&quot;&gt;&lt;b&gt;Store&lt;/b&gt;&lt;/font&gt;" style="rounded=0;whiteSpace=wrap;html=1;fillColor=#FFF2CC;" vertex="1" parent="1">
          <mxGeometry x="24.5" y="2580" width="65.5" height="20" as="geometry" />
        </mxCell>
        <mxCell id="uzs_12xQnQwQcAluXUmT-60" value="&lt;b&gt;StoreFacade&lt;/b&gt;" style="swimlane;fontStyle=0;childLayout=stackLayout;horizontal=1;startSize=26;fillColor=#CCE5FF;horizontalStack=0;resizeParent=1;resizeParentMax=0;resizeLast=0;collapsible=1;marginBottom=0;whiteSpace=wrap;html=1;" vertex="1" parent="1">
          <mxGeometry x="76" y="2610" width="140" height="52" as="geometry" />
        </mxCell>
        <mxCell id="uzs_12xQnQwQcAluXUmT-61" value="" style="text;strokeColor=default;fillColor=#FFFFFF;align=left;verticalAlign=top;spacingLeft=4;spacingRight=4;overflow=hidden;rotatable=0;points=[[0,0.5],[1,0.5]];portConstraint=eastwest;whiteSpace=wrap;html=1;" vertex="1" parent="uzs_12xQnQwQcAluXUmT-60">
          <mxGeometry y="26" width="140" height="26" as="geometry" />
        </mxCell>
        <mxCell id="uzs_12xQnQwQcAluXUmT-242" style="edgeStyle=orthogonalEdgeStyle;rounded=0;orthogonalLoop=1;jettySize=auto;html=1;exitX=0;exitY=0.5;exitDx=0;exitDy=0;endArrow=none;endFill=0;startArrow=diamondThin;startFill=1;entryX=0.809;entryY=1.017;entryDx=0;entryDy=0;entryPerimeter=0;" edge="1" parent="1" source="uzs_12xQnQwQcAluXUmT-62" target="uzs_12xQnQwQcAluXUmT-61">
          <mxGeometry relative="1" as="geometry" />
        </mxCell>
        <mxCell id="uzs_12xQnQwQcAluXUmT-62" value="&lt;b&gt;Store&lt;/b&gt;" style="swimlane;fontStyle=0;childLayout=stackLayout;horizontal=1;startSize=20;fillColor=#CCE5FF;horizontalStack=0;resizeParent=1;resizeParentMax=0;resizeLast=0;collapsible=1;marginBottom=0;whiteSpace=wrap;html=1;" vertex="1" parent="1">
          <mxGeometry x="299" y="2608" width="160" height="150" as="geometry" />
        </mxCell>
        <mxCell id="uzs_12xQnQwQcAluXUmT-63" value="- storeId: int" style="text;strokeColor=default;fillColor=#FFFFFF;align=left;verticalAlign=top;spacingLeft=4;spacingRight=4;overflow=hidden;rotatable=0;points=[[0,0.5],[1,0.5]];portConstraint=eastwest;whiteSpace=wrap;html=1;" vertex="1" parent="uzs_12xQnQwQcAluXUmT-62">
          <mxGeometry y="20" width="160" height="26" as="geometry" />
        </mxCell>
        <mxCell id="uzs_12xQnQwQcAluXUmT-64" value="- locationId: int" style="text;strokeColor=default;fillColor=#FFFFFF;align=left;verticalAlign=top;spacingLeft=4;spacingRight=4;overflow=hidden;rotatable=0;points=[[0,0.5],[1,0.5]];portConstraint=eastwest;whiteSpace=wrap;html=1;" vertex="1" parent="uzs_12xQnQwQcAluXUmT-62">
          <mxGeometry y="46" width="160" height="26" as="geometry" />
        </mxCell>
        <mxCell id="uzs_12xQnQwQcAluXUmT-65" value="- storeName: String" style="text;strokeColor=default;fillColor=#FFFFFF;align=left;verticalAlign=top;spacingLeft=4;spacingRight=4;overflow=hidden;rotatable=0;points=[[0,0.5],[1,0.5]];portConstraint=eastwest;whiteSpace=wrap;html=1;" vertex="1" parent="uzs_12xQnQwQcAluXUmT-62">
          <mxGeometry y="72" width="160" height="26" as="geometry" />
        </mxCell>
        <mxCell id="uzs_12xQnQwQcAluXUmT-66" value="- rating: int" style="text;strokeColor=default;fillColor=#FFFFFF;align=left;verticalAlign=top;spacingLeft=4;spacingRight=4;overflow=hidden;rotatable=0;points=[[0,0.5],[1,0.5]];portConstraint=eastwest;whiteSpace=wrap;html=1;" vertex="1" parent="uzs_12xQnQwQcAluXUmT-62">
          <mxGeometry y="98" width="160" height="26" as="geometry" />
        </mxCell>
        <mxCell id="uzs_12xQnQwQcAluXUmT-68" value="- isActive: boolean" style="text;strokeColor=default;fillColor=#FFFFFF;align=left;verticalAlign=top;spacingLeft=4;spacingRight=4;overflow=hidden;rotatable=0;points=[[0,0.5],[1,0.5]];portConstraint=eastwest;whiteSpace=wrap;html=1;" vertex="1" parent="uzs_12xQnQwQcAluXUmT-62">
          <mxGeometry y="124" width="160" height="26" as="geometry" />
        </mxCell>
        <mxCell id="uzs_12xQnQwQcAluXUmT-72" value="" style="whiteSpace=wrap;html=1;fillColor=#E1D5E7;" vertex="1" parent="1">
          <mxGeometry x="20" y="3240" width="460" height="240" as="geometry" />
        </mxCell>
        <mxCell id="uzs_12xQnQwQcAluXUmT-73" value="&lt;span style=&quot;font-size: 14px;&quot;&gt;&lt;b&gt;Purchase&lt;/b&gt;&lt;/span&gt;" style="rounded=0;whiteSpace=wrap;html=1;fillColor=#FFF2CC;" vertex="1" parent="1">
          <mxGeometry x="19.5" y="3220" width="85" height="20" as="geometry" />
        </mxCell>
        <mxCell id="uzs_12xQnQwQcAluXUmT-74" value="&lt;div&gt;&lt;b&gt;&amp;lt;&amp;lt;Interface&amp;gt;&amp;gt;&lt;br&gt;&lt;/b&gt;&lt;/div&gt;&lt;b&gt;&lt;/b&gt;&lt;div&gt;&lt;b style=&quot;background-color: initial;&quot;&gt;DiscountStrategy&lt;/b&gt;&lt;br&gt;&lt;/div&gt;" style="swimlane;fontStyle=0;childLayout=stackLayout;horizontal=1;startSize=40;fillColor=#CCE5FF;horizontalStack=0;resizeParent=1;resizeParentMax=0;resizeLast=0;collapsible=1;marginBottom=0;whiteSpace=wrap;html=1;" vertex="1" parent="1">
          <mxGeometry x="82.75" y="2725" width="128.25" height="66" as="geometry" />
        </mxCell>
        <mxCell id="uzs_12xQnQwQcAluXUmT-75" value="- discountId: int" style="text;strokeColor=default;fillColor=#FFFFFF;align=left;verticalAlign=top;spacingLeft=4;spacingRight=4;overflow=hidden;rotatable=0;points=[[0,0.5],[1,0.5]];portConstraint=eastwest;whiteSpace=wrap;html=1;" vertex="1" parent="uzs_12xQnQwQcAluXUmT-74">
          <mxGeometry y="40" width="128.25" height="26" as="geometry" />
        </mxCell>
        <mxCell id="uzs_12xQnQwQcAluXUmT-76" value="&lt;div&gt;&lt;b&gt;&amp;lt;&amp;lt;Interface&amp;gt;&amp;gt;&lt;/b&gt;&lt;/div&gt;&lt;b&gt;Purchase&lt;/b&gt;" style="swimlane;fontStyle=0;childLayout=stackLayout;horizontal=1;startSize=40;fillColor=#CCE5FF;horizontalStack=0;resizeParent=1;resizeParentMax=0;resizeLast=0;collapsible=1;marginBottom=0;whiteSpace=wrap;html=1;" vertex="1" parent="1">
          <mxGeometry x="274" y="3301" width="200" height="170" as="geometry" />
        </mxCell>
        <mxCell id="uzs_12xQnQwQcAluXUmT-77" value="- purchaseId: int" style="text;strokeColor=default;fillColor=#FFFFFF;align=left;verticalAlign=top;spacingLeft=4;spacingRight=4;overflow=hidden;rotatable=0;points=[[0,0.5],[1,0.5]];portConstraint=eastwest;whiteSpace=wrap;html=1;" vertex="1" parent="uzs_12xQnQwQcAluXUmT-76">
          <mxGeometry y="40" width="200" height="26" as="geometry" />
        </mxCell>
        <mxCell id="uzs_12xQnQwQcAluXUmT-78" value="- memberId: int" style="text;strokeColor=default;fillColor=#FFFFFF;align=left;verticalAlign=top;spacingLeft=4;spacingRight=4;overflow=hidden;rotatable=0;points=[[0,0.5],[1,0.5]];portConstraint=eastwest;whiteSpace=wrap;html=1;" vertex="1" parent="uzs_12xQnQwQcAluXUmT-76">
          <mxGeometry y="66" width="200" height="26" as="geometry" />
        </mxCell>
        <mxCell id="uzs_12xQnQwQcAluXUmT-79" value="- dateOfPurchase: LocalDateTime" style="text;strokeColor=default;fillColor=#FFFFFF;align=left;verticalAlign=top;spacingLeft=4;spacingRight=4;overflow=hidden;rotatable=0;points=[[0,0.5],[1,0.5]];portConstraint=eastwest;whiteSpace=wrap;html=1;" vertex="1" parent="uzs_12xQnQwQcAluXUmT-76">
          <mxGeometry y="92" width="200" height="26" as="geometry" />
        </mxCell>
        <mxCell id="uzs_12xQnQwQcAluXUmT-80" value="- products: List&amp;lt;int&amp;gt;" style="text;strokeColor=default;fillColor=#FFFFFF;align=left;verticalAlign=top;spacingLeft=4;spacingRight=4;overflow=hidden;rotatable=0;points=[[0,0.5],[1,0.5]];portConstraint=eastwest;whiteSpace=wrap;html=1;" vertex="1" parent="uzs_12xQnQwQcAluXUmT-76">
          <mxGeometry y="118" width="200" height="26" as="geometry" />
        </mxCell>
        <mxCell id="uzs_12xQnQwQcAluXUmT-81" value="- totalPrice: int" style="text;strokeColor=default;fillColor=#FFFFFF;align=left;verticalAlign=top;spacingLeft=4;spacingRight=4;overflow=hidden;rotatable=0;points=[[0,0.5],[1,0.5]];portConstraint=eastwest;whiteSpace=wrap;html=1;" vertex="1" parent="uzs_12xQnQwQcAluXUmT-76">
          <mxGeometry y="144" width="200" height="26" as="geometry" />
        </mxCell>
        <mxCell id="uzs_12xQnQwQcAluXUmT-82" value="&lt;div&gt;&lt;b&gt;&amp;lt;&amp;lt;Interface&amp;gt;&amp;gt;&lt;/b&gt;&lt;/div&gt;&lt;b&gt;Rating&lt;/b&gt;" style="swimlane;fontStyle=0;childLayout=stackLayout;horizontal=1;startSize=42;fillColor=#CCE5FF;horizontalStack=0;resizeParent=1;resizeParentMax=0;resizeLast=0;collapsible=1;marginBottom=0;whiteSpace=wrap;html=1;" vertex="1" parent="1">
          <mxGeometry x="29" y="3258" width="115" height="120" as="geometry" />
        </mxCell>
        <mxCell id="uzs_12xQnQwQcAluXUmT-83" value="- rating: int" style="text;strokeColor=default;fillColor=#FFFFFF;align=left;verticalAlign=top;spacingLeft=4;spacingRight=4;overflow=hidden;rotatable=0;points=[[0,0.5],[1,0.5]];portConstraint=eastwest;whiteSpace=wrap;html=1;" vertex="1" parent="uzs_12xQnQwQcAluXUmT-82">
          <mxGeometry y="42" width="115" height="26" as="geometry" />
        </mxCell>
        <mxCell id="uzs_12xQnQwQcAluXUmT-84" value="- purchaseId: int" style="text;strokeColor=default;fillColor=#FFFFFF;align=left;verticalAlign=top;spacingLeft=4;spacingRight=4;overflow=hidden;rotatable=0;points=[[0,0.5],[1,0.5]];portConstraint=eastwest;whiteSpace=wrap;html=1;" vertex="1" parent="uzs_12xQnQwQcAluXUmT-82">
          <mxGeometry y="68" width="115" height="26" as="geometry" />
        </mxCell>
        <mxCell id="uzs_12xQnQwQcAluXUmT-85" value="- description: String" style="text;strokeColor=default;fillColor=#FFFFFF;align=left;verticalAlign=top;spacingLeft=4;spacingRight=4;overflow=hidden;rotatable=0;points=[[0,0.5],[1,0.5]];portConstraint=eastwest;whiteSpace=wrap;html=1;" vertex="1" parent="uzs_12xQnQwQcAluXUmT-82">
          <mxGeometry y="94" width="115" height="26" as="geometry" />
        </mxCell>
        <mxCell id="uzs_12xQnQwQcAluXUmT-86" value="&lt;b&gt;PurchaseFacade&lt;/b&gt;" style="swimlane;fontStyle=0;childLayout=stackLayout;horizontal=1;startSize=26;fillColor=#CCE5FF;horizontalStack=0;resizeParent=1;resizeParentMax=0;resizeLast=0;collapsible=1;marginBottom=0;whiteSpace=wrap;html=1;" vertex="1" parent="1">
          <mxGeometry x="25.5" y="3388" width="190" height="52" as="geometry" />
        </mxCell>
        <mxCell id="uzs_12xQnQwQcAluXUmT-87" value="- purchaseIdCounter: int" style="text;strokeColor=default;fillColor=#FFFFFF;align=left;verticalAlign=top;spacingLeft=4;spacingRight=4;overflow=hidden;rotatable=0;points=[[0,0.5],[1,0.5]];portConstraint=eastwest;whiteSpace=wrap;html=1;" vertex="1" parent="uzs_12xQnQwQcAluXUmT-86">
          <mxGeometry y="26" width="190" height="26" as="geometry" />
        </mxCell>
        <mxCell id="uzs_12xQnQwQcAluXUmT-89" value="&lt;b&gt;Category&lt;/b&gt;" style="swimlane;fontStyle=0;childLayout=stackLayout;horizontal=1;startSize=26;fillColor=#CCE5FF;horizontalStack=0;resizeParent=1;resizeParentMax=0;resizeLast=0;collapsible=1;marginBottom=0;whiteSpace=wrap;html=1;" vertex="1" parent="1">
          <mxGeometry x="38" y="3092" width="212" height="104" as="geometry" />
        </mxCell>
        <mxCell id="uzs_12xQnQwQcAluXUmT-90" value="- categoryId: int" style="text;strokeColor=default;fillColor=#FFFFFF;align=left;verticalAlign=top;spacingLeft=4;spacingRight=4;overflow=hidden;rotatable=0;points=[[0,0.5],[1,0.5]];portConstraint=eastwest;whiteSpace=wrap;html=1;" vertex="1" parent="uzs_12xQnQwQcAluXUmT-89">
          <mxGeometry y="26" width="212" height="26" as="geometry" />
        </mxCell>
        <mxCell id="uzs_12xQnQwQcAluXUmT-91" value="- categoryName: int" style="text;strokeColor=default;fillColor=#FFFFFF;align=left;verticalAlign=top;spacingLeft=4;spacingRight=4;overflow=hidden;rotatable=0;points=[[0,0.5],[1,0.5]];portConstraint=eastwest;whiteSpace=wrap;html=1;" vertex="1" parent="uzs_12xQnQwQcAluXUmT-89">
          <mxGeometry y="52" width="212" height="26" as="geometry" />
        </mxCell>
        <mxCell id="uzs_12xQnQwQcAluXUmT-92" value="- parentCategoryId: int" style="text;strokeColor=default;fillColor=#FFFFFF;align=left;verticalAlign=top;spacingLeft=4;spacingRight=4;overflow=hidden;rotatable=0;points=[[0,0.5],[1,0.5]];portConstraint=eastwest;whiteSpace=wrap;html=1;" vertex="1" parent="uzs_12xQnQwQcAluXUmT-89">
          <mxGeometry y="78" width="212" height="26" as="geometry" />
        </mxCell>
        <mxCell id="uzs_12xQnQwQcAluXUmT-94" value="&lt;b&gt;ProductSpecification&lt;/b&gt;" style="swimlane;fontStyle=0;childLayout=stackLayout;horizontal=1;startSize=26;fillColor=#CCE5FF;horizontalStack=0;resizeParent=1;resizeParentMax=0;resizeLast=0;collapsible=1;marginBottom=0;whiteSpace=wrap;html=1;" vertex="1" parent="1">
          <mxGeometry x="38" y="2848" width="140" height="208" as="geometry" />
        </mxCell>
        <mxCell id="uzs_12xQnQwQcAluXUmT-95" value="- specificationId: int" style="text;strokeColor=default;fillColor=#FFFFFF;align=left;verticalAlign=top;spacingLeft=4;spacingRight=4;overflow=hidden;rotatable=0;points=[[0,0.5],[1,0.5]];portConstraint=eastwest;whiteSpace=wrap;html=1;" vertex="1" parent="uzs_12xQnQwQcAluXUmT-94">
          <mxGeometry y="26" width="140" height="26" as="geometry" />
        </mxCell>
        <mxCell id="uzs_12xQnQwQcAluXUmT-96" value="- productName: String" style="text;strokeColor=default;fillColor=#FFFFFF;align=left;verticalAlign=top;spacingLeft=4;spacingRight=4;overflow=hidden;rotatable=0;points=[[0,0.5],[1,0.5]];portConstraint=eastwest;whiteSpace=wrap;html=1;" vertex="1" parent="uzs_12xQnQwQcAluXUmT-94">
          <mxGeometry y="52" width="140" height="26" as="geometry" />
        </mxCell>
        <mxCell id="uzs_12xQnQwQcAluXUmT-97" value="- weight: int" style="text;strokeColor=default;fillColor=#FFFFFF;align=left;verticalAlign=top;spacingLeft=4;spacingRight=4;overflow=hidden;rotatable=0;points=[[0,0.5],[1,0.5]];portConstraint=eastwest;whiteSpace=wrap;html=1;" vertex="1" parent="uzs_12xQnQwQcAluXUmT-94">
          <mxGeometry y="78" width="140" height="26" as="geometry" />
        </mxCell>
        <mxCell id="uzs_12xQnQwQcAluXUmT-98" value="- description: String" style="text;strokeColor=default;fillColor=#FFFFFF;align=left;verticalAlign=top;spacingLeft=4;spacingRight=4;overflow=hidden;rotatable=0;points=[[0,0.5],[1,0.5]];portConstraint=eastwest;whiteSpace=wrap;html=1;" vertex="1" parent="uzs_12xQnQwQcAluXUmT-94">
          <mxGeometry y="104" width="140" height="26" as="geometry" />
        </mxCell>
        <mxCell id="uzs_12xQnQwQcAluXUmT-99" value="- tags: List&amp;lt;String&amp;gt;" style="text;strokeColor=default;fillColor=#FFFFFF;align=left;verticalAlign=top;spacingLeft=4;spacingRight=4;overflow=hidden;rotatable=0;points=[[0,0.5],[1,0.5]];portConstraint=eastwest;whiteSpace=wrap;html=1;" vertex="1" parent="uzs_12xQnQwQcAluXUmT-94">
          <mxGeometry y="130" width="140" height="26" as="geometry" />
        </mxCell>
        <mxCell id="uzs_12xQnQwQcAluXUmT-100" value="- manufacturer: String" style="text;strokeColor=default;fillColor=#FFFFFF;align=left;verticalAlign=top;spacingLeft=4;spacingRight=4;overflow=hidden;rotatable=0;points=[[0,0.5],[1,0.5]];portConstraint=eastwest;whiteSpace=wrap;html=1;" vertex="1" parent="uzs_12xQnQwQcAluXUmT-94">
          <mxGeometry y="156" width="140" height="26" as="geometry" />
        </mxCell>
        <mxCell id="uzs_12xQnQwQcAluXUmT-101" value="- rating: int" style="text;strokeColor=default;fillColor=#FFFFFF;align=left;verticalAlign=top;spacingLeft=4;spacingRight=4;overflow=hidden;rotatable=0;points=[[0,0.5],[1,0.5]];portConstraint=eastwest;whiteSpace=wrap;html=1;" vertex="1" parent="uzs_12xQnQwQcAluXUmT-94">
          <mxGeometry y="182" width="140" height="26" as="geometry" />
        </mxCell>
        <mxCell id="uzs_12xQnQwQcAluXUmT-102" value="&lt;div&gt;&lt;b&gt;&amp;lt;&amp;lt;enumeration&amp;gt;&amp;gt;&lt;br&gt;&lt;/b&gt;&lt;/div&gt;&lt;b&gt;ProductCondition&lt;/b&gt;" style="swimlane;fontStyle=0;childLayout=stackLayout;horizontal=1;startSize=40;fillColor=#CCE5FF;horizontalStack=0;resizeParent=1;resizeParentMax=0;resizeLast=0;collapsible=1;marginBottom=0;whiteSpace=wrap;html=1;" vertex="1" parent="1">
          <mxGeometry x="308.75" y="3106" width="140" height="92" as="geometry" />
        </mxCell>
        <mxCell id="uzs_12xQnQwQcAluXUmT-103" value="# new" style="text;strokeColor=default;fillColor=#FFFFFF;align=left;verticalAlign=top;spacingLeft=4;spacingRight=4;overflow=hidden;rotatable=0;points=[[0,0.5],[1,0.5]];portConstraint=eastwest;whiteSpace=wrap;html=1;" vertex="1" parent="uzs_12xQnQwQcAluXUmT-102">
          <mxGeometry y="40" width="140" height="26" as="geometry" />
        </mxCell>
        <mxCell id="uzs_12xQnQwQcAluXUmT-104" value="# used" style="text;strokeColor=default;fillColor=#FFFFFF;align=left;verticalAlign=top;spacingLeft=4;spacingRight=4;overflow=hidden;rotatable=0;points=[[0,0.5],[1,0.5]];portConstraint=eastwest;whiteSpace=wrap;html=1;" vertex="1" parent="uzs_12xQnQwQcAluXUmT-102">
          <mxGeometry y="66" width="140" height="26" as="geometry" />
        </mxCell>
        <mxCell id="uzs_12xQnQwQcAluXUmT-105" value="&lt;b&gt;Product&lt;/b&gt;" style="swimlane;fontStyle=0;childLayout=stackLayout;horizontal=1;startSize=26;fillColor=#CCE5FF;horizontalStack=0;resizeParent=1;resizeParentMax=0;resizeLast=0;collapsible=1;marginBottom=0;whiteSpace=wrap;html=1;" vertex="1" parent="1">
          <mxGeometry x="275.25" y="2905" width="185" height="182" as="geometry" />
        </mxCell>
        <mxCell id="uzs_12xQnQwQcAluXUmT-106" value="- productId: int" style="text;strokeColor=default;fillColor=#FFFFFF;align=left;verticalAlign=top;spacingLeft=4;spacingRight=4;overflow=hidden;rotatable=0;points=[[0,0.5],[1,0.5]];portConstraint=eastwest;whiteSpace=wrap;html=1;" vertex="1" parent="uzs_12xQnQwQcAluXUmT-105">
          <mxGeometry y="26" width="185" height="26" as="geometry" />
        </mxCell>
        <mxCell id="uzs_12xQnQwQcAluXUmT-107" value="- storeId: int" style="text;strokeColor=default;fillColor=#FFFFFF;align=left;verticalAlign=top;spacingLeft=4;spacingRight=4;overflow=hidden;rotatable=0;points=[[0,0.5],[1,0.5]];portConstraint=eastwest;whiteSpace=wrap;html=1;" vertex="1" parent="uzs_12xQnQwQcAluXUmT-105">
          <mxGeometry y="52" width="185" height="26" as="geometry" />
        </mxCell>
        <mxCell id="uzs_12xQnQwQcAluXUmT-108" value="- specificationId: int" style="text;strokeColor=default;fillColor=#FFFFFF;align=left;verticalAlign=top;spacingLeft=4;spacingRight=4;overflow=hidden;rotatable=0;points=[[0,0.5],[1,0.5]];portConstraint=eastwest;whiteSpace=wrap;html=1;" vertex="1" parent="uzs_12xQnQwQcAluXUmT-105">
          <mxGeometry y="78" width="185" height="26" as="geometry" />
        </mxCell>
        <mxCell id="uzs_12xQnQwQcAluXUmT-109" value="- expirationDate: LocalDateTime" style="text;strokeColor=default;fillColor=#FFFFFF;align=left;verticalAlign=top;spacingLeft=4;spacingRight=4;overflow=hidden;rotatable=0;points=[[0,0.5],[1,0.5]];portConstraint=eastwest;whiteSpace=wrap;html=1;" vertex="1" parent="uzs_12xQnQwQcAluXUmT-105">
          <mxGeometry y="104" width="185" height="26" as="geometry" />
        </mxCell>
        <mxCell id="uzs_12xQnQwQcAluXUmT-110" value="- condition: ProductCondition" style="text;strokeColor=default;fillColor=#FFFFFF;align=left;verticalAlign=top;spacingLeft=4;spacingRight=4;overflow=hidden;rotatable=0;points=[[0,0.5],[1,0.5]];portConstraint=eastwest;whiteSpace=wrap;html=1;" vertex="1" parent="uzs_12xQnQwQcAluXUmT-105">
          <mxGeometry y="130" width="185" height="26" as="geometry" />
        </mxCell>
        <mxCell id="uzs_12xQnQwQcAluXUmT-111" value="- price: int" style="text;strokeColor=default;fillColor=#FFFFFF;align=left;verticalAlign=top;spacingLeft=4;spacingRight=4;overflow=hidden;rotatable=0;points=[[0,0.5],[1,0.5]];portConstraint=eastwest;whiteSpace=wrap;html=1;" vertex="1" parent="uzs_12xQnQwQcAluXUmT-105">
          <mxGeometry y="156" width="185" height="26" as="geometry" />
        </mxCell>
        <mxCell id="uzs_12xQnQwQcAluXUmT-112" value="" style="whiteSpace=wrap;html=1;fillColor=#E1D5E7;" vertex="1" parent="1">
          <mxGeometry x="484" y="2660" width="326" height="550" as="geometry" />
        </mxCell>
        <mxCell id="uzs_12xQnQwQcAluXUmT-113" value="&lt;b&gt;UserFacade&lt;/b&gt;" style="swimlane;fontStyle=0;childLayout=stackLayout;horizontal=1;startSize=26;fillColor=#CCE5FF;horizontalStack=0;resizeParent=1;resizeParentMax=0;resizeLast=0;collapsible=1;marginBottom=0;whiteSpace=wrap;html=1;" vertex="1" parent="1">
          <mxGeometry x="675.13" y="2682" width="127.75" height="52" as="geometry" />
        </mxCell>
        <mxCell id="uzs_12xQnQwQcAluXUmT-114" value="" style="text;strokeColor=default;fillColor=#FFFFFF;align=left;verticalAlign=top;spacingLeft=4;spacingRight=4;overflow=hidden;rotatable=0;points=[[0,0.5],[1,0.5]];portConstraint=eastwest;whiteSpace=wrap;html=1;" vertex="1" parent="uzs_12xQnQwQcAluXUmT-113">
          <mxGeometry y="26" width="127.75" height="26" as="geometry" />
        </mxCell>
        <mxCell id="uzs_12xQnQwQcAluXUmT-115" value="&lt;font style=&quot;font-size: 14px;&quot;&gt;&lt;b&gt;User&lt;/b&gt;&lt;/font&gt;" style="rounded=0;whiteSpace=wrap;html=1;fillColor=#FFF2CC;" vertex="1" parent="1">
          <mxGeometry x="484" y="2640" width="70" height="20" as="geometry" />
        </mxCell>
        <mxCell id="uzs_12xQnQwQcAluXUmT-116" value="&lt;b&gt;User&lt;/b&gt;" style="swimlane;fontStyle=0;childLayout=stackLayout;horizontal=1;startSize=22;fillColor=#CCE5FF;horizontalStack=0;resizeParent=1;resizeParentMax=0;resizeLast=0;collapsible=1;marginBottom=0;whiteSpace=wrap;html=1;" vertex="1" parent="1">
          <mxGeometry x="491" y="2697" width="126" height="100" as="geometry" />
        </mxCell>
        <mxCell id="uzs_12xQnQwQcAluXUmT-117" value="- userId: int" style="text;strokeColor=default;fillColor=#FFFFFF;align=left;verticalAlign=top;spacingLeft=4;spacingRight=4;overflow=hidden;rotatable=0;points=[[0,0.5],[1,0.5]];portConstraint=eastwest;whiteSpace=wrap;html=1;" vertex="1" parent="uzs_12xQnQwQcAluXUmT-116">
          <mxGeometry y="22" width="126" height="26" as="geometry" />
        </mxCell>
        <mxCell id="uzs_12xQnQwQcAluXUmT-118" value="- currency: String" style="text;strokeColor=default;fillColor=#FFFFFF;align=left;verticalAlign=top;spacingLeft=4;spacingRight=4;overflow=hidden;rotatable=0;points=[[0,0.5],[1,0.5]];portConstraint=eastwest;whiteSpace=wrap;html=1;" vertex="1" parent="uzs_12xQnQwQcAluXUmT-116">
          <mxGeometry y="48" width="126" height="26" as="geometry" />
        </mxCell>
        <mxCell id="uzs_12xQnQwQcAluXUmT-119" value="- isMember: boolean" style="text;strokeColor=default;fillColor=#FFFFFF;align=left;verticalAlign=top;spacingLeft=4;spacingRight=4;overflow=hidden;rotatable=0;points=[[0,0.5],[1,0.5]];portConstraint=eastwest;whiteSpace=wrap;html=1;" vertex="1" parent="uzs_12xQnQwQcAluXUmT-116">
          <mxGeometry y="74" width="126" height="26" as="geometry" />
        </mxCell>
        <mxCell id="2L5cOaxwcJAvvOBqLWuJ-45" style="edgeStyle=orthogonalEdgeStyle;rounded=0;orthogonalLoop=1;jettySize=auto;html=1;exitX=0.5;exitY=0;exitDx=0;exitDy=0;entryX=0.5;entryY=1;entryDx=0;entryDy=0;endArrow=block;endFill=0;dashed=1;" edge="1" parent="1" source="uzs_12xQnQwQcAluXUmT-120" target="2L5cOaxwcJAvvOBqLWuJ-19">
          <mxGeometry relative="1" as="geometry" />
        </mxCell>
        <mxCell id="uzs_12xQnQwQcAluXUmT-120" value="&lt;b&gt;Guest&lt;/b&gt;" style="swimlane;fontStyle=0;childLayout=stackLayout;horizontal=1;startSize=26;fillColor=#CCE5FF;horizontalStack=0;resizeParent=1;resizeParentMax=0;resizeLast=0;collapsible=1;marginBottom=0;whiteSpace=wrap;html=1;" vertex="1" parent="1">
          <mxGeometry x="522.5" y="3013.5" width="85" height="52" as="geometry" />
        </mxCell>
        <mxCell id="uzs_12xQnQwQcAluXUmT-121" value="" style="text;strokeColor=default;fillColor=#FFFFFF;align=left;verticalAlign=top;spacingLeft=4;spacingRight=4;overflow=hidden;rotatable=0;points=[[0,0.5],[1,0.5]];portConstraint=eastwest;whiteSpace=wrap;html=1;" vertex="1" parent="uzs_12xQnQwQcAluXUmT-120">
          <mxGeometry y="26" width="85" height="26" as="geometry" />
        </mxCell>
        <mxCell id="2L5cOaxwcJAvvOBqLWuJ-46" style="edgeStyle=orthogonalEdgeStyle;rounded=0;orthogonalLoop=1;jettySize=auto;html=1;exitX=0.5;exitY=0;exitDx=0;exitDy=0;entryX=0.916;entryY=0.031;entryDx=0;entryDy=0;dashed=1;endArrow=block;endFill=0;entryPerimeter=0;" edge="1" parent="1" source="uzs_12xQnQwQcAluXUmT-122" target="2L5cOaxwcJAvvOBqLWuJ-19">
          <mxGeometry relative="1" as="geometry" />
        </mxCell>
        <mxCell id="uzs_12xQnQwQcAluXUmT-122" value="&lt;b&gt;Member&lt;/b&gt;" style="swimlane;fontStyle=0;childLayout=stackLayout;horizontal=1;startSize=26;fillColor=#CCE5FF;horizontalStack=0;resizeParent=1;resizeParentMax=0;resizeLast=0;collapsible=1;marginBottom=0;whiteSpace=wrap;html=1;" vertex="1" parent="1">
          <mxGeometry x="619" y="2885.5" width="182" height="182" as="geometry" />
        </mxCell>
        <mxCell id="uzs_12xQnQwQcAluXUmT-123" value="- locationId: int" style="text;strokeColor=default;fillColor=#FFFFFF;align=left;verticalAlign=top;spacingLeft=4;spacingRight=4;overflow=hidden;rotatable=0;points=[[0,0.5],[1,0.5]];portConstraint=eastwest;whiteSpace=wrap;html=1;" vertex="1" parent="uzs_12xQnQwQcAluXUmT-122">
          <mxGeometry y="26" width="182" height="26" as="geometry" />
        </mxCell>
        <mxCell id="uzs_12xQnQwQcAluXUmT-124" value="- use&lt;span style=&quot;color: rgba(0, 0, 0, 0); font-family: monospace; font-size: 0px; text-wrap: nowrap;&quot;&gt;%3CmxGraphModel%3E%3Croot%3E%3CmxCell%20id%3D%220%22%2F%3E%3CmxCell%20id%3D%221%22%20parent%3D%220%22%2F%3E%3CmxCell%20id%3D%222%22%20value%3D%22-%20userId%3A%20int%22%20style%3D%22text%3BstrokeColor%3Dnone%3BfillColor%3D%23FFFFFF%3Balign%3Dleft%3BverticalAlign%3Dtop%3BspacingLeft%3D4%3BspacingRight%3D4%3Boverflow%3Dhidden%3Brotatable%3D0%3Bpoints%3D%5B%5B0%2C0.5%5D%2C%5B1%2C0.5%5D%5D%3BportConstraint%3Deastwest%3BwhiteSpace%3Dwrap%3Bhtml%3D1%3B%22%20vertex%3D%221%22%20parent%3D%221%22%3E%3CmxGeometry%20x%3D%22600%22%20y%3D%221500%22%20width%3D%22160%22%20height%3D%2226%22%20as%3D%22geometry%22%2F%3E%3C%2FmxCell%3E%3C%2Froot%3E%3C%2FmxGraphModel%3E&lt;/span&gt;&lt;span style=&quot;color: rgba(0, 0, 0, 0); font-family: monospace; font-size: 0px; text-wrap: nowrap;&quot;&gt;%3CmxGraphModel%3E%3Croot%3E%3CmxCell%20id%3D%220%22%2F%3E%3CmxCell%20id%3D%221%22%20parent%3D%220%22%2F%3E%3CmxCell%20id%3D%222%22%20value%3D%22-%20userId%3A%20int%22%20style%3D%22text%3BstrokeColor%3Dnone%3BfillColor%3D%23FFFFFF%3Balign%3Dleft%3BverticalAlign%3Dtop%3BspacingLeft%3D4%3BspacingRight%3D4%3Boverflow%3Dhidden%3Brotatable%3D0%3Bpoints%3D%5B%5B0%2C0.5%5D%2C%5B1%2C0.5%5D%5D%3BportConstraint%3Deastwest%3BwhiteSpace%3Dwrap%3Bhtml%3D1%3B%22%20vertex%3D%221%22%20parent%3D%221%22%3E%3CmxGeometry%20x%3D%22600%22%20y%3D%221500%22%20width%3D%22160%22%20height%3D%2226%22%20as%3D%22geometry%22%2F%3E%3C%2FmxCell%3E%3C%2Froot%3E%3C%2FmxGraphModel%3E&lt;/span&gt;rEmail: String" style="text;strokeColor=default;fillColor=#FFFFFF;align=left;verticalAlign=top;spacingLeft=4;spacingRight=4;overflow=hidden;rotatable=0;points=[[0,0.5],[1,0.5]];portConstraint=eastwest;whiteSpace=wrap;html=1;" vertex="1" parent="uzs_12xQnQwQcAluXUmT-122">
          <mxGeometry y="52" width="182" height="26" as="geometry" />
        </mxCell>
        <mxCell id="uzs_12xQnQwQcAluXUmT-125" value="- userName&lt;span style=&quot;color: rgba(0, 0, 0, 0); font-family: monospace; font-size: 0px; text-wrap: nowrap;&quot;&gt;%3CmxGraphModel%3E%3Croot%3E%3CmxCell%20id%3D%220%22%2F%3E%3CmxCell%20id%3D%221%22%20parent%3D%220%22%2F%3E%3CmxCell%20id%3D%222%22%20value%3D%22-%20userId%3A%20int%22%20style%3D%22text%3BstrokeColor%3Dnone%3BfillColor%3D%23FFFFFF%3Balign%3Dleft%3BverticalAlign%3Dtop%3BspacingLeft%3D4%3BspacingRight%3D4%3Boverflow%3Dhidden%3Brotatable%3D0%3Bpoints%3D%5B%5B0%2C0.5%5D%2C%5B1%2C0.5%5D%5D%3BportConstraint%3Deastwest%3BwhiteSpace%3Dwrap%3Bhtml%3D1%3B%22%20vertex%3D%221%22%20parent%3D%221%22%3E%3CmxGeometry%20x%3D%22600%22%20y%3D%221500%22%20width%3D%22160%22%20height%3D%2226%22%20as%3D%22geometry%22%2F%3E%3C%2FmxCell%3E%3C%2Froot%3E%3C%2FmxGraphModel%3E&lt;/span&gt;&lt;span style=&quot;color: rgba(0, 0, 0, 0); font-family: monospace; font-size: 0px; text-wrap: nowrap;&quot;&gt;%3CmxGraphModel%3E%3Croot%3E%3CmxCell%20id%3D%220%22%2F%3E%3CmxCell%20id%3D%221%22%20parent%3D%220%22%2F%3E%3CmxCell%20id%3D%222%22%20value%3D%22-%20userId%3A%20int%22%20style%3D%22text%3BstrokeColor%3Dnone%3BfillColor%3D%23FFFFFF%3Balign%3Dleft%3BverticalAlign%3Dtop%3BspacingLeft%3D4%3BspacingRight%3D4%3Boverflow%3Dhidden%3Brotatable%3D0%3Bpoints%3D%5B%5B0%2C0.5%5D%2C%5B1%2C0.5%5D%5D%3BportConstraint%3Deastwest%3BwhiteSpace%3Dwrap%3Bhtml%3D1%3B%22%20vertex%3D%221%22%20parent%3D%221%22%3E%3CmxGeometry%20x%3D%22600%22%20y%3D%221500%22%20width%3D%22160%22%20height%3D%2226%22%20as%3D%22geometry%22%2F%3E%3C%2FmxCell%3E%3C%2Froot%3E%3C%2FmxGraphModel%&lt;/span&gt;: String" style="text;strokeColor=default;fillColor=#FFFFFF;align=left;verticalAlign=top;spacingLeft=4;spacingRight=4;overflow=hidden;rotatable=0;points=[[0,0.5],[1,0.5]];portConstraint=eastwest;whiteSpace=wrap;html=1;" vertex="1" parent="uzs_12xQnQwQcAluXUmT-122">
          <mxGeometry y="78" width="182" height="26" as="geometry" />
        </mxCell>
        <mxCell id="uzs_12xQnQwQcAluXUmT-126" value="- birthDate: LocalDateTime" style="text;strokeColor=default;fillColor=#FFFFFF;align=left;verticalAlign=top;spacingLeft=4;spacingRight=4;overflow=hidden;rotatable=0;points=[[0,0.5],[1,0.5]];portConstraint=eastwest;whiteSpace=wrap;html=1;" vertex="1" parent="uzs_12xQnQwQcAluXUmT-122">
          <mxGeometry y="104" width="182" height="26" as="geometry" />
        </mxCell>
        <mxCell id="uzs_12xQnQwQcAluXUmT-127" value="- phoneNumber&lt;span style=&quot;color: rgba(0, 0, 0, 0); font-family: monospace; font-size: 0px; text-wrap: nowrap;&quot;&gt;%3CmxGraphModel%3E%3Croot%3E%3CmxCell%20id%3D%220%22%2F%3E%3CmxCell%20id%3D%221%22%20parent%3D%220%22%2F%3E%3CmxCell%20id%3D%222%22%20value%3D%22-%20userId%3A%20int%22%20style%3D%22text%3BstrokeColor%3Dnone%3BfillColor%3D%23FFFFFF%3Balign%3Dleft%3BverticalAlign%3Dtop%3BspacingLeft%3D4%3BspacingRight%3D4%3Boverflow%3Dhidden%3Brotatable%3D0%3Bpoints%3D%5B%5B0%2C0.5%5D%2C%5B1%2C0.5%5D%5D%3BportConstraint%3Deastwest%3BwhiteSpace%3Dwrap%3Bhtml%3D1%3B%22%20vertex%3D%221%22%20parent%3D%221%22%3E%3CmxGeometry%20x%3D%22600%22%20y%3D%221500%22%20width%3D%22160%22%20height%3D%2226%22%20as%3D%22geometry%22%2F%3E%3C%2FmxCell%3E%3C%2Froot%3E%3C%2FmxGraphModel%3E&lt;/span&gt;&lt;span style=&quot;color: rgba(0, 0, 0, 0); font-family: monospace; font-size: 0px; text-wrap: nowrap;&quot;&gt;%3CmxGraphModel%3E%3Croot%3E%3CmxCell%20id%3D%220%22%2F%3E%3CmxCell%20id%3D%221%22%20parent%3D%220%22%2F%3E%3CmxCell%20id%3D%222%22%20value%3D%22-%20userId%3A%20int%22%20style%3D%22text%3BstrokeColor%3Dnone%3BfillColor%3D%23FFFFFF%3Balign%3Dleft%3BverticalAlign%3Dtop%3BspacingLeft%3D4%3BspacingRight%3D4%3Boverflow%3Dhidden%3Brotatable%3D0%3Bpoints%3D%5B%5B0%2C0.5%5D%2C%5B1%2C0.5%5D%5D%3BportConstraint%3Deastwest%3BwhiteSpace%3Dwrap%3Bhtml%3D1%3B%22%20vertex%3D%221%22%20parent%3D%221%22%3E%3CmxGeometry%20x%3D%22600%22%20y%3D%221500%22%20width%3D%22160%22%20height%3D%2226%22%20as%3D%22geometry%22%2F%3E%3C%2FmxCell%3E%3C%2Froot%3E%3C%2FmxGraphModel&lt;/span&gt;: int" style="text;strokeColor=default;fillColor=#FFFFFF;align=left;verticalAlign=top;spacingLeft=4;spacingRight=4;overflow=hidden;rotatable=0;points=[[0,0.5],[1,0.5]];portConstraint=eastwest;whiteSpace=wrap;html=1;" vertex="1" parent="uzs_12xQnQwQcAluXUmT-122">
          <mxGeometry y="130" width="182" height="26" as="geometry" />
        </mxCell>
        <mxCell id="uzs_12xQnQwQcAluXUmT-128" value="- billingAddressesIds: List&amp;lt;int&amp;gt;" style="text;strokeColor=default;fillColor=#FFFFFF;align=left;verticalAlign=top;spacingLeft=4;spacingRight=4;overflow=hidden;rotatable=0;points=[[0,0.5],[1,0.5]];portConstraint=eastwest;whiteSpace=wrap;html=1;" vertex="1" parent="uzs_12xQnQwQcAluXUmT-122">
          <mxGeometry y="156" width="182" height="26" as="geometry" />
        </mxCell>
        <mxCell id="uzs_12xQnQwQcAluXUmT-142" value="&lt;b&gt;Notification&lt;/b&gt;" style="swimlane;fontStyle=0;childLayout=stackLayout;horizontal=1;startSize=26;fillColor=#CCE5FF;horizontalStack=0;resizeParent=1;resizeParentMax=0;resizeLast=0;collapsible=1;marginBottom=0;whiteSpace=wrap;html=1;" vertex="1" parent="1">
          <mxGeometry x="667.5" y="2745" width="135" height="104" as="geometry" />
        </mxCell>
        <mxCell id="uzs_12xQnQwQcAluXUmT-143" value="- notificationId: int" style="text;strokeColor=default;fillColor=#FFFFFF;align=left;verticalAlign=top;spacingLeft=4;spacingRight=4;overflow=hidden;rotatable=0;points=[[0,0.5],[1,0.5]];portConstraint=eastwest;whiteSpace=wrap;html=1;" vertex="1" parent="uzs_12xQnQwQcAluXUmT-142">
          <mxGeometry y="26" width="135" height="26" as="geometry" />
        </mxCell>
        <mxCell id="uzs_12xQnQwQcAluXUmT-144" value="- date: LocalDateTime" style="text;strokeColor=default;fillColor=#FFFFFF;align=left;verticalAlign=top;spacingLeft=4;spacingRight=4;overflow=hidden;rotatable=0;points=[[0,0.5],[1,0.5]];portConstraint=eastwest;whiteSpace=wrap;html=1;" vertex="1" parent="uzs_12xQnQwQcAluXUmT-142">
          <mxGeometry y="52" width="135" height="26" as="geometry" />
        </mxCell>
        <mxCell id="uzs_12xQnQwQcAluXUmT-145" value="- description: String" style="text;strokeColor=default;fillColor=#FFFFFF;align=left;verticalAlign=top;spacingLeft=4;spacingRight=4;overflow=hidden;rotatable=0;points=[[0,0.5],[1,0.5]];portConstraint=eastwest;whiteSpace=wrap;html=1;" vertex="1" parent="uzs_12xQnQwQcAluXUmT-142">
          <mxGeometry y="78" width="135" height="26" as="geometry" />
        </mxCell>
        <mxCell id="uzs_12xQnQwQcAluXUmT-146" value="&lt;b&gt;ShoppingBasket&lt;/b&gt;" style="swimlane;fontStyle=0;childLayout=stackLayout;horizontal=1;startSize=26;fillColor=#CCE5FF;horizontalStack=0;resizeParent=1;resizeParentMax=0;resizeLast=0;collapsible=1;marginBottom=0;whiteSpace=wrap;html=1;" vertex="1" parent="1">
          <mxGeometry x="666.63" y="3073" width="124.75" height="130" as="geometry" />
        </mxCell>
        <mxCell id="uzs_12xQnQwQcAluXUmT-147" value="- storeId: int" style="text;strokeColor=default;fillColor=#FFFFFF;align=left;verticalAlign=top;spacingLeft=4;spacingRight=4;overflow=hidden;rotatable=0;points=[[0,0.5],[1,0.5]];portConstraint=eastwest;whiteSpace=wrap;html=1;" vertex="1" parent="uzs_12xQnQwQcAluXUmT-146">
          <mxGeometry y="26" width="124.75" height="26" as="geometry" />
        </mxCell>
        <mxCell id="uzs_12xQnQwQcAluXUmT-148" value="- totalPrice: int" style="text;strokeColor=default;fillColor=#FFFFFF;align=left;verticalAlign=top;spacingLeft=4;spacingRight=4;overflow=hidden;rotatable=0;points=[[0,0.5],[1,0.5]];portConstraint=eastwest;whiteSpace=wrap;html=1;" vertex="1" parent="uzs_12xQnQwQcAluXUmT-146">
          <mxGeometry y="52" width="124.75" height="26" as="geometry" />
        </mxCell>
        <mxCell id="uzs_12xQnQwQcAluXUmT-149" value="- basketId: int" style="text;strokeColor=default;fillColor=#FFFFFF;align=left;verticalAlign=top;spacingLeft=4;spacingRight=4;overflow=hidden;rotatable=0;points=[[0,0.5],[1,0.5]];portConstraint=eastwest;whiteSpace=wrap;html=1;" vertex="1" parent="uzs_12xQnQwQcAluXUmT-146">
          <mxGeometry y="78" width="124.75" height="26" as="geometry" />
        </mxCell>
        <mxCell id="uzs_12xQnQwQcAluXUmT-150" value="- products: List&amp;lt;int&amp;gt;" style="text;strokeColor=default;fillColor=#FFFFFF;align=left;verticalAlign=top;spacingLeft=4;spacingRight=4;overflow=hidden;rotatable=0;points=[[0,0.5],[1,0.5]];portConstraint=eastwest;whiteSpace=wrap;html=1;" vertex="1" parent="uzs_12xQnQwQcAluXUmT-146">
          <mxGeometry y="104" width="124.75" height="26" as="geometry" />
        </mxCell>
        <mxCell id="uzs_12xQnQwQcAluXUmT-196" style="edgeStyle=orthogonalEdgeStyle;rounded=0;orthogonalLoop=1;jettySize=auto;html=1;exitX=0.25;exitY=0;exitDx=0;exitDy=0;endArrow=diamondThin;endFill=1;entryX=0.147;entryY=1.054;entryDx=0;entryDy=0;entryPerimeter=0;" edge="1" parent="1" target="uzs_12xQnQwQcAluXUmT-119">
          <mxGeometry relative="1" as="geometry">
            <Array as="points">
              <mxPoint x="510" y="2870" />
              <mxPoint x="510" y="2852" />
            </Array>
            <mxPoint x="510.1925000000001" y="3073.25" as="sourcePoint" />
            <mxPoint x="511" y="2736.75" as="targetPoint" />
          </mxGeometry>
        </mxCell>
        <mxCell id="uzs_12xQnQwQcAluXUmT-151" value="&lt;b&gt;ShoppingCart&lt;/b&gt;" style="swimlane;fontStyle=0;childLayout=stackLayout;horizontal=1;startSize=26;fillColor=#CCE5FF;horizontalStack=0;resizeParent=1;resizeParentMax=0;resizeLast=0;collapsible=1;marginBottom=0;whiteSpace=wrap;html=1;" vertex="1" parent="1">
          <mxGeometry x="492.13" y="3076.5" width="136.25" height="104" as="geometry" />
        </mxCell>
        <mxCell id="uzs_12xQnQwQcAluXUmT-152" value="- userId: int" style="text;strokeColor=default;fillColor=#FFFFFF;align=left;verticalAlign=top;spacingLeft=4;spacingRight=4;overflow=hidden;rotatable=0;points=[[0,0.5],[1,0.5]];portConstraint=eastwest;whiteSpace=wrap;html=1;" vertex="1" parent="uzs_12xQnQwQcAluXUmT-151">
          <mxGeometry y="26" width="136.25" height="26" as="geometry" />
        </mxCell>
        <mxCell id="uzs_12xQnQwQcAluXUmT-153" value="- cartId: int" style="text;strokeColor=default;fillColor=#FFFFFF;align=left;verticalAlign=top;spacingLeft=4;spacingRight=4;overflow=hidden;rotatable=0;points=[[0,0.5],[1,0.5]];portConstraint=eastwest;whiteSpace=wrap;html=1;" vertex="1" parent="uzs_12xQnQwQcAluXUmT-151">
          <mxGeometry y="52" width="136.25" height="26" as="geometry" />
        </mxCell>
        <mxCell id="uzs_12xQnQwQcAluXUmT-154" value="- totalPrice: int" style="text;strokeColor=default;fillColor=#FFFFFF;align=left;verticalAlign=top;spacingLeft=4;spacingRight=4;overflow=hidden;rotatable=0;points=[[0,0.5],[1,0.5]];portConstraint=eastwest;whiteSpace=wrap;html=1;" vertex="1" parent="uzs_12xQnQwQcAluXUmT-151">
          <mxGeometry y="78" width="136.25" height="26" as="geometry" />
        </mxCell>
        <mxCell id="uzs_12xQnQwQcAluXUmT-171" style="edgeStyle=orthogonalEdgeStyle;rounded=0;orthogonalLoop=1;jettySize=auto;html=1;exitX=0.885;exitY=1.127;exitDx=0;exitDy=0;entryX=0.923;entryY=-0.015;entryDx=0;entryDy=0;entryPerimeter=0;endArrow=diamondThin;endFill=0;exitPerimeter=0;" edge="1" parent="1" source="uzs_12xQnQwQcAluXUmT-145" target="uzs_12xQnQwQcAluXUmT-122">
          <mxGeometry relative="1" as="geometry">
            <Array as="points">
              <mxPoint x="787" y="2850" />
              <mxPoint x="787" y="2850" />
            </Array>
          </mxGeometry>
        </mxCell>
        <mxCell id="uzs_12xQnQwQcAluXUmT-176" style="edgeStyle=orthogonalEdgeStyle;rounded=0;orthogonalLoop=1;jettySize=auto;html=1;exitX=0;exitY=0.5;exitDx=0;exitDy=0;entryX=1;entryY=0.25;entryDx=0;entryDy=0;endArrow=diamondThin;endFill=0;" edge="1" parent="1" source="uzs_12xQnQwQcAluXUmT-114" target="uzs_12xQnQwQcAluXUmT-116">
          <mxGeometry relative="1" as="geometry">
            <Array as="points">
              <mxPoint x="675" y="2722" />
            </Array>
          </mxGeometry>
        </mxCell>
        <mxCell id="uzs_12xQnQwQcAluXUmT-184" style="edgeStyle=orthogonalEdgeStyle;rounded=0;orthogonalLoop=1;jettySize=auto;html=1;exitX=0.997;exitY=0.639;exitDx=0;exitDy=0;exitPerimeter=0;entryX=0.432;entryY=0.006;entryDx=0;entryDy=0;entryPerimeter=0;" edge="1" parent="1" source="uzs_12xQnQwQcAluXUmT-43" target="uzs_12xQnQwQcAluXUmT-113">
          <mxGeometry relative="1" as="geometry">
            <mxPoint x="730" y="2670" as="targetPoint" />
            <Array as="points">
              <mxPoint x="730" y="2591" />
              <mxPoint x="730" y="2608" />
              <mxPoint x="730" y="2608" />
            </Array>
          </mxGeometry>
        </mxCell>
        <mxCell id="uzs_12xQnQwQcAluXUmT-185" value="&lt;b&gt;&lt;font style=&quot;font-size: 11px;&quot;&gt;0..*&lt;/font&gt;&lt;/b&gt;" style="text;html=1;align=center;verticalAlign=middle;whiteSpace=wrap;rounded=0;" vertex="1" parent="1">
          <mxGeometry x="512.25" y="2569.5" width="51.5" height="25" as="geometry" />
        </mxCell>
        <mxCell id="uzs_12xQnQwQcAluXUmT-187" value="&lt;b&gt;&lt;font style=&quot;font-size: 11px;&quot;&gt;uses&lt;/font&gt;&lt;/b&gt;" style="text;html=1;align=center;verticalAlign=middle;whiteSpace=wrap;rounded=0;rotation=0;" vertex="1" parent="1">
          <mxGeometry x="667.5" y="2569" width="90" height="30" as="geometry" />
        </mxCell>
        <mxCell id="uzs_12xQnQwQcAluXUmT-190" value="&lt;b&gt;&lt;font style=&quot;font-size: 10px;&quot;&gt;0..*&lt;/font&gt;&lt;/b&gt;" style="text;html=1;align=center;verticalAlign=middle;whiteSpace=wrap;rounded=0;" vertex="1" parent="1">
          <mxGeometry x="631.5" y="3144" width="51.5" height="25" as="geometry" />
        </mxCell>
        <mxCell id="uzs_12xQnQwQcAluXUmT-191" value="&lt;b&gt;&lt;font style=&quot;font-size: 9px;&quot;&gt;1&lt;/font&gt;&lt;/b&gt;" style="text;html=1;align=center;verticalAlign=middle;whiteSpace=wrap;rounded=0;" vertex="1" parent="1">
          <mxGeometry x="610.5" y="3109" width="51.5" height="25" as="geometry" />
        </mxCell>
        <mxCell id="uzs_12xQnQwQcAluXUmT-200" style="edgeStyle=orthogonalEdgeStyle;rounded=0;orthogonalLoop=1;jettySize=auto;html=1;entryX=0.996;entryY=0.024;entryDx=0;entryDy=0;endArrow=diamondThin;endFill=1;entryPerimeter=0;exitX=-0.01;exitY=-0.04;exitDx=0;exitDy=0;exitPerimeter=0;" edge="1" parent="1" source="uzs_12xQnQwQcAluXUmT-149">
          <mxGeometry relative="1" as="geometry">
            <mxPoint x="679" y="3206" as="sourcePoint" />
            <mxPoint x="626.8350000000003" y="3129.1240000000003" as="targetPoint" />
            <Array as="points">
              <mxPoint x="660" y="3150" />
              <mxPoint x="660" y="3129" />
            </Array>
          </mxGeometry>
        </mxCell>
        <mxCell id="uzs_12xQnQwQcAluXUmT-201" value="&lt;b&gt;&lt;font style=&quot;font-size: 11px;&quot;&gt;has&lt;/font&gt;&lt;/b&gt;" style="text;html=1;align=center;verticalAlign=middle;whiteSpace=wrap;rounded=0;rotation=-90;" vertex="1" parent="1">
          <mxGeometry x="479.25" y="2901.75" width="40.5" height="30" as="geometry" />
        </mxCell>
        <mxCell id="uzs_12xQnQwQcAluXUmT-212" value="&lt;b&gt;&lt;font style=&quot;font-size: 11px;&quot;&gt;rates&lt;/font&gt;&lt;/b&gt;" style="text;html=1;align=center;verticalAlign=middle;whiteSpace=wrap;rounded=0;rotation=0;" vertex="1" parent="1">
          <mxGeometry x="182.25" y="3251.5" width="90" height="30" as="geometry" />
        </mxCell>
        <mxCell id="uzs_12xQnQwQcAluXUmT-213" value="&lt;b&gt;&lt;font style=&quot;font-size: 11px;&quot;&gt;0..*&lt;/font&gt;&lt;/b&gt;" style="text;html=1;align=center;verticalAlign=middle;whiteSpace=wrap;rounded=0;" vertex="1" parent="1">
          <mxGeometry x="134" y="3254" width="51.5" height="25" as="geometry" />
        </mxCell>
        <mxCell id="uzs_12xQnQwQcAluXUmT-214" value="&lt;b&gt;&lt;font style=&quot;font-size: 11px;&quot;&gt;1&lt;/font&gt;&lt;/b&gt;" style="text;html=1;align=center;verticalAlign=middle;whiteSpace=wrap;rounded=0;" vertex="1" parent="1">
          <mxGeometry x="309.5" y="3276" width="51.5" height="25" as="geometry" />
        </mxCell>
        <mxCell id="uzs_12xQnQwQcAluXUmT-227" style="edgeStyle=orthogonalEdgeStyle;rounded=0;orthogonalLoop=1;jettySize=auto;html=1;exitX=0.99;exitY=0.222;exitDx=0;exitDy=0;entryX=0.834;entryY=0.01;entryDx=0;entryDy=0;entryPerimeter=0;endArrow=diamondThin;endFill=0;exitPerimeter=0;" edge="1" parent="1" source="uzs_12xQnQwQcAluXUmT-99" target="uzs_12xQnQwQcAluXUmT-89">
          <mxGeometry relative="1" as="geometry" />
        </mxCell>
        <mxCell id="uzs_12xQnQwQcAluXUmT-228" value="&lt;b&gt;&lt;font style=&quot;font-size: 11px;&quot;&gt;0..*&lt;/font&gt;&lt;/b&gt;" style="text;html=1;align=center;verticalAlign=middle;whiteSpace=wrap;rounded=0;" vertex="1" parent="1">
          <mxGeometry x="201.5" y="3069.5" width="51.5" height="25" as="geometry" />
        </mxCell>
        <mxCell id="uzs_12xQnQwQcAluXUmT-229" value="&lt;b&gt;&lt;font style=&quot;font-size: 11px;&quot;&gt;0..*&lt;/font&gt;&lt;/b&gt;" style="text;html=1;align=center;verticalAlign=middle;whiteSpace=wrap;rounded=0;" vertex="1" parent="1">
          <mxGeometry x="165" y="2961" width="51.5" height="25" as="geometry" />
        </mxCell>
        <mxCell id="uzs_12xQnQwQcAluXUmT-231" style="edgeStyle=orthogonalEdgeStyle;rounded=0;orthogonalLoop=1;jettySize=auto;html=1;exitX=0.75;exitY=0;exitDx=0;exitDy=0;entryX=0.093;entryY=0.001;entryDx=0;entryDy=0;entryPerimeter=0;" edge="1" parent="1" source="uzs_12xQnQwQcAluXUmT-94" target="uzs_12xQnQwQcAluXUmT-105">
          <mxGeometry relative="1" as="geometry">
            <mxPoint x="177.9999999999999" y="2824" as="sourcePoint" />
            <mxPoint x="260" y="2824" as="targetPoint" />
          </mxGeometry>
        </mxCell>
        <mxCell id="uzs_12xQnQwQcAluXUmT-232" value="&lt;b&gt;&lt;font style=&quot;font-size: 11px;&quot;&gt;describes&lt;/font&gt;&lt;/b&gt;" style="text;html=1;align=center;verticalAlign=middle;whiteSpace=wrap;rounded=0;rotation=0;" vertex="1" parent="1">
          <mxGeometry x="178" y="2823" width="90" height="30" as="geometry" />
        </mxCell>
        <mxCell id="uzs_12xQnQwQcAluXUmT-233" value="&lt;b&gt;&lt;font style=&quot;font-size: 11px;&quot;&gt;1&lt;/font&gt;&lt;/b&gt;" style="text;html=1;align=center;verticalAlign=middle;whiteSpace=wrap;rounded=0;" vertex="1" parent="1">
          <mxGeometry x="126.5" y="2826" width="51.5" height="25" as="geometry" />
        </mxCell>
        <mxCell id="uzs_12xQnQwQcAluXUmT-234" value="&lt;b&gt;&lt;font style=&quot;font-size: 11px;&quot;&gt;0..*&lt;/font&gt;&lt;/b&gt;" style="text;html=1;align=center;verticalAlign=middle;whiteSpace=wrap;rounded=0;" vertex="1" parent="1">
          <mxGeometry x="254.5" y="2876.75" width="51.5" height="25" as="geometry" />
        </mxCell>
        <mxCell id="uzs_12xQnQwQcAluXUmT-243" value="&lt;b&gt;&lt;font style=&quot;font-size: 11px;&quot;&gt;0..*&lt;/font&gt;&lt;/b&gt;" style="text;html=1;align=center;verticalAlign=middle;whiteSpace=wrap;rounded=0;" vertex="1" parent="1">
          <mxGeometry x="262.25" y="2682" width="51.5" height="25" as="geometry" />
        </mxCell>
        <mxCell id="uzs_12xQnQwQcAluXUmT-244" value="&lt;b&gt;&lt;font style=&quot;font-size: 11px;&quot;&gt;1&lt;/font&gt;&lt;/b&gt;" style="text;html=1;align=center;verticalAlign=middle;whiteSpace=wrap;rounded=0;" vertex="1" parent="1">
          <mxGeometry x="170.5" y="2657" width="51.5" height="25" as="geometry" />
        </mxCell>
        <mxCell id="uzs_12xQnQwQcAluXUmT-245" value="&lt;b&gt;&lt;font style=&quot;font-size: 11px;&quot;&gt;manages&lt;/font&gt;&lt;/b&gt;" style="text;html=1;align=center;verticalAlign=middle;whiteSpace=wrap;rounded=0;rotation=0;" vertex="1" parent="1">
          <mxGeometry x="182.5" y="2676" width="90" height="30" as="geometry" />
        </mxCell>
        <mxCell id="uzs_12xQnQwQcAluXUmT-246" style="edgeStyle=orthogonalEdgeStyle;rounded=0;orthogonalLoop=1;jettySize=auto;html=1;exitX=-0.022;exitY=0.597;exitDx=0;exitDy=0;entryX=0.939;entryY=0.005;entryDx=0;entryDy=0;endArrow=diamondThin;endFill=1;entryPerimeter=0;exitPerimeter=0;" edge="1" parent="1" source="uzs_12xQnQwQcAluXUmT-43" target="uzs_12xQnQwQcAluXUmT-60">
          <mxGeometry relative="1" as="geometry">
            <Array as="points">
              <mxPoint x="540" y="2589" />
              <mxPoint x="208" y="2589" />
            </Array>
          </mxGeometry>
        </mxCell>
        <mxCell id="uzs_12xQnQwQcAluXUmT-247" value="&lt;b&gt;&lt;font style=&quot;font-size: 11px;&quot;&gt;0..*&lt;/font&gt;&lt;/b&gt;" style="text;html=1;align=center;verticalAlign=middle;whiteSpace=wrap;rounded=0;" vertex="1" parent="1">
          <mxGeometry x="639" y="2569" width="51.5" height="25" as="geometry" />
        </mxCell>
        <mxCell id="uzs_12xQnQwQcAluXUmT-248" value="&lt;b&gt;&lt;font style=&quot;font-size: 10px;&quot;&gt;1&lt;/font&gt;&lt;/b&gt;" style="text;html=1;align=center;verticalAlign=middle;whiteSpace=wrap;rounded=0;" vertex="1" parent="1">
          <mxGeometry x="173.5" y="2579.5" width="51.5" height="25" as="geometry" />
        </mxCell>
        <mxCell id="uzs_12xQnQwQcAluXUmT-250" value="&lt;b&gt;&lt;font style=&quot;font-size: 11px;&quot;&gt;uses service&lt;/font&gt;&lt;/b&gt;" style="text;html=1;align=center;verticalAlign=middle;whiteSpace=wrap;rounded=0;rotation=0;" vertex="1" parent="1">
          <mxGeometry x="285" y="2566" width="90" height="30" as="geometry" />
        </mxCell>
        <mxCell id="uzs_12xQnQwQcAluXUmT-261" style="edgeStyle=orthogonalEdgeStyle;rounded=0;orthogonalLoop=1;jettySize=auto;html=1;exitX=0.081;exitY=-0.003;exitDx=0;exitDy=0;entryX=-0.009;entryY=-0.126;entryDx=0;entryDy=0;endArrow=diamondThin;endFill=0;exitPerimeter=0;entryPerimeter=0;" edge="1" parent="1" source="uzs_12xQnQwQcAluXUmT-94" target="uzs_12xQnQwQcAluXUmT-61">
          <mxGeometry relative="1" as="geometry">
            <mxPoint x="40.75999999999999" y="2659.96" as="sourcePoint" />
            <Array as="points">
              <mxPoint x="49" y="2633" />
            </Array>
          </mxGeometry>
        </mxCell>
        <mxCell id="uzs_12xQnQwQcAluXUmT-262" value="&lt;b&gt;&lt;font style=&quot;font-size: 11px;&quot;&gt;1&lt;/font&gt;&lt;/b&gt;" style="text;html=1;align=center;verticalAlign=middle;whiteSpace=wrap;rounded=0;" vertex="1" parent="1">
          <mxGeometry x="40.5" y="2607" width="51.5" height="25" as="geometry" />
        </mxCell>
        <mxCell id="2L5cOaxwcJAvvOBqLWuJ-1" value="&lt;b&gt;AuthenticationService&lt;/b&gt;" style="swimlane;fontStyle=0;childLayout=stackLayout;horizontal=1;startSize=26;fillColor=#CCE5FF;horizontalStack=0;resizeParent=1;resizeParentMax=0;resizeLast=0;collapsible=1;marginBottom=0;whiteSpace=wrap;html=1;" vertex="1" parent="1">
          <mxGeometry x="65" y="2005" width="285" height="70" as="geometry" />
        </mxCell>
        <mxCell id="2L5cOaxwcJAvvOBqLWuJ-2" value="- authenticationManager: AuthenticationManager&lt;div&gt;- marketService: MarketFacade&lt;br&gt;&lt;/div&gt;" style="text;strokeColor=default;fillColor=#FFFFFF;align=left;verticalAlign=top;spacingLeft=4;spacingRight=4;overflow=hidden;rotatable=0;points=[[0,0.5],[1,0.5]];portConstraint=eastwest;whiteSpace=wrap;html=1;" vertex="1" parent="2L5cOaxwcJAvvOBqLWuJ-1">
          <mxGeometry y="26" width="285" height="44" as="geometry" />
        </mxCell>
        <mxCell id="2L5cOaxwcJAvvOBqLWuJ-108" style="edgeStyle=orthogonalEdgeStyle;rounded=0;orthogonalLoop=1;jettySize=auto;html=1;exitX=0.75;exitY=1;exitDx=0;exitDy=0;entryX=0.25;entryY=0;entryDx=0;entryDy=0;endArrow=none;endFill=0;startArrow=diamondThin;startFill=1;" edge="1" parent="1" source="2L5cOaxwcJAvvOBqLWuJ-13" target="uzs_12xQnQwQcAluXUmT-113">
          <mxGeometry relative="1" as="geometry">
            <Array as="points">
              <mxPoint x="352" y="2560" />
              <mxPoint x="490" y="2560" />
              <mxPoint x="490" y="2630" />
              <mxPoint x="707" y="2630" />
            </Array>
          </mxGeometry>
        </mxCell>
        <mxCell id="2L5cOaxwcJAvvOBqLWuJ-13" value="&lt;b&gt;MarketFacade&lt;/b&gt;" style="swimlane;fontStyle=0;childLayout=stackLayout;horizontal=1;startSize=22;fillColor=#CCE5FF;horizontalStack=0;resizeParent=1;resizeParentMax=0;resizeLast=0;collapsible=1;marginBottom=0;whiteSpace=wrap;html=1;" vertex="1" parent="1">
          <mxGeometry x="251" y="2380" width="135" height="60" as="geometry" />
        </mxCell>
        <mxCell id="2L5cOaxwcJAvvOBqLWuJ-59" value="" style="text;strokeColor=default;fillColor=#FFFFFF;align=left;verticalAlign=top;spacingLeft=4;spacingRight=4;overflow=hidden;rotatable=0;points=[[0,0.5],[1,0.5]];portConstraint=eastwest;whiteSpace=wrap;html=1;" vertex="1" parent="2L5cOaxwcJAvvOBqLWuJ-13">
          <mxGeometry y="22" width="135" height="38" as="geometry" />
        </mxCell>
        <mxCell id="2L5cOaxwcJAvvOBqLWuJ-16" value="&lt;div&gt;&lt;b&gt;&amp;lt;&amp;lt;Interface&amp;gt;&amp;gt;&lt;/b&gt;&lt;/div&gt;&lt;b&gt;PolicyStrategy&lt;/b&gt;" style="swimlane;fontStyle=0;childLayout=stackLayout;horizontal=1;startSize=35;fillColor=#CCE5FF;horizontalStack=0;resizeParent=1;resizeParentMax=0;resizeLast=0;collapsible=1;marginBottom=0;whiteSpace=wrap;html=1;" vertex="1" parent="1">
          <mxGeometry x="334.75" y="2814.75" width="120" height="60" as="geometry" />
        </mxCell>
        <mxCell id="2L5cOaxwcJAvvOBqLWuJ-17" value="- policyId: int" style="text;strokeColor=default;fillColor=#FFFFFF;align=left;verticalAlign=top;spacingLeft=4;spacingRight=4;overflow=hidden;rotatable=0;points=[[0,0.5],[1,0.5]];portConstraint=eastwest;whiteSpace=wrap;html=1;" vertex="1" parent="2L5cOaxwcJAvvOBqLWuJ-16">
          <mxGeometry y="35" width="120" height="25" as="geometry" />
        </mxCell>
        <mxCell id="2L5cOaxwcJAvvOBqLWuJ-19" value="&lt;b&gt;&amp;lt;&amp;lt;Interface&amp;gt;&amp;gt;&lt;/b&gt;&lt;div&gt;&lt;b&gt;State&lt;/b&gt;&lt;/div&gt;" style="swimlane;fontStyle=0;childLayout=stackLayout;horizontal=1;startSize=40;fillColor=#CCE5FF;horizontalStack=0;resizeParent=1;resizeParentMax=0;resizeLast=0;collapsible=1;marginBottom=0;whiteSpace=wrap;html=1;" vertex="1" parent="1">
          <mxGeometry x="523.5" y="2916" width="83" height="60" as="geometry" />
        </mxCell>
        <mxCell id="2L5cOaxwcJAvvOBqLWuJ-21" value="" style="text;strokeColor=default;fillColor=#FFFFFF;align=left;verticalAlign=top;spacingLeft=4;spacingRight=4;overflow=hidden;rotatable=0;points=[[0,0.5],[1,0.5]];portConstraint=eastwest;whiteSpace=wrap;html=1;" vertex="1" parent="2L5cOaxwcJAvvOBqLWuJ-19">
          <mxGeometry y="40" width="83" height="20" as="geometry" />
        </mxCell>
        <mxCell id="uzs_12xQnQwQcAluXUmT-44" value="&lt;b&gt;SearchFacade&lt;/b&gt;" style="swimlane;fontStyle=0;childLayout=stackLayout;horizontal=1;startSize=18;fillColor=#CCE5FF;horizontalStack=0;resizeParent=1;resizeParentMax=0;resizeLast=0;collapsible=1;marginBottom=0;whiteSpace=wrap;html=1;" vertex="1" parent="1">
          <mxGeometry x="82" y="2511" width="101" height="40" as="geometry" />
        </mxCell>
        <mxCell id="uzs_12xQnQwQcAluXUmT-45" value="" style="text;strokeColor=default;fillColor=#FFFFFF;align=left;verticalAlign=top;spacingLeft=4;spacingRight=4;overflow=hidden;rotatable=0;points=[[0,0.5],[1,0.5]];portConstraint=eastwest;whiteSpace=wrap;html=1;" vertex="1" parent="uzs_12xQnQwQcAluXUmT-44">
          <mxGeometry y="18" width="101" height="22" as="geometry" />
        </mxCell>
        <mxCell id="uzs_12xQnQwQcAluXUmT-183" value="&lt;b&gt;&lt;font style=&quot;font-size: 11px;&quot;&gt;uses&lt;/font&gt;&lt;/b&gt;" style="text;html=1;align=center;verticalAlign=middle;whiteSpace=wrap;rounded=0;rotation=90;" vertex="1" parent="1">
          <mxGeometry x="109" y="2558" width="90" height="30" as="geometry" />
        </mxCell>
        <mxCell id="2L5cOaxwcJAvvOBqLWuJ-26" style="edgeStyle=orthogonalEdgeStyle;rounded=0;orthogonalLoop=1;jettySize=auto;html=1;exitX=0.5;exitY=0;exitDx=0;exitDy=0;endArrow=none;endFill=0;entryX=0.633;entryY=0.992;entryDx=0;entryDy=0;entryPerimeter=0;" edge="1" parent="1" source="uzs_12xQnQwQcAluXUmT-60" target="uzs_12xQnQwQcAluXUmT-45">
          <mxGeometry relative="1" as="geometry">
            <mxPoint x="200" y="2470" as="targetPoint" />
            <Array as="points">
              <mxPoint x="146" y="2552" />
            </Array>
          </mxGeometry>
        </mxCell>
        <mxCell id="uzs_12xQnQwQcAluXUmT-182" value="&lt;b&gt;&lt;font style=&quot;font-size: 11px;&quot;&gt;1&lt;/font&gt;&lt;/b&gt;" style="text;html=1;align=center;verticalAlign=middle;whiteSpace=wrap;rounded=0;" vertex="1" parent="1">
          <mxGeometry x="111.75" y="2546" width="51.5" height="25" as="geometry" />
        </mxCell>
        <mxCell id="2L5cOaxwcJAvvOBqLWuJ-47" style="edgeStyle=orthogonalEdgeStyle;rounded=0;orthogonalLoop=1;jettySize=auto;html=1;entryX=0.369;entryY=0.013;entryDx=0;entryDy=0;entryPerimeter=0;endArrow=open;endFill=0;startArrow=diamond;startFill=0;exitX=0.5;exitY=1;exitDx=0;exitDy=0;" edge="1" parent="1" source="uzs_12xQnQwQcAluXUmT-116" target="2L5cOaxwcJAvvOBqLWuJ-19">
          <mxGeometry relative="1" as="geometry">
            <mxPoint x="554" y="2850" as="sourcePoint" />
            <Array as="points">
              <mxPoint x="554" y="2917" />
            </Array>
          </mxGeometry>
        </mxCell>
        <mxCell id="2L5cOaxwcJAvvOBqLWuJ-48" value="" style="whiteSpace=wrap;html=1;fillColor=#E1D5E7;" vertex="1" parent="1">
          <mxGeometry x="466" y="2400" width="176" height="83" as="geometry" />
        </mxCell>
        <mxCell id="2L5cOaxwcJAvvOBqLWuJ-93" style="edgeStyle=orthogonalEdgeStyle;rounded=0;orthogonalLoop=1;jettySize=auto;html=1;exitX=0;exitY=0.25;exitDx=0;exitDy=0;entryX=1;entryY=0.25;entryDx=0;entryDy=0;endArrow=diamondThin;endFill=1;" edge="1" parent="1" source="2L5cOaxwcJAvvOBqLWuJ-22" target="2L5cOaxwcJAvvOBqLWuJ-13">
          <mxGeometry relative="1" as="geometry" />
        </mxCell>
        <mxCell id="2L5cOaxwcJAvvOBqLWuJ-22" value="&lt;span style=&quot;text-align: left;&quot;&gt;&lt;b&gt;AuthenticationManager&lt;/b&gt;&lt;/span&gt;" style="swimlane;fontStyle=0;childLayout=stackLayout;horizontal=1;startSize=26;fillColor=#CCE5FF;horizontalStack=0;resizeParent=1;resizeParentMax=0;resizeLast=0;collapsible=1;marginBottom=0;whiteSpace=wrap;html=1;" vertex="1" parent="1">
          <mxGeometry x="472.13" y="2406.5" width="150" height="70" as="geometry" />
        </mxCell>
        <mxCell id="2L5cOaxwcJAvvOBqLWuJ-23" value="- userIdToTokens: Map&amp;lt;int,String&amp;gt;" style="text;strokeColor=default;fillColor=#FFFFFF;align=left;verticalAlign=top;spacingLeft=4;spacingRight=4;overflow=hidden;rotatable=0;points=[[0,0.5],[1,0.5]];portConstraint=eastwest;whiteSpace=wrap;html=1;" vertex="1" parent="2L5cOaxwcJAvvOBqLWuJ-22">
          <mxGeometry y="26" width="150" height="44" as="geometry" />
        </mxCell>
        <mxCell id="2L5cOaxwcJAvvOBqLWuJ-49" value="&lt;b style=&quot;text-align: left;&quot;&gt;Authentication&lt;/b&gt;" style="rounded=0;whiteSpace=wrap;html=1;fillColor=#FFF2CC;" vertex="1" parent="1">
          <mxGeometry x="466" y="2374" width="106" height="26" as="geometry" />
        </mxCell>
        <mxCell id="2L5cOaxwcJAvvOBqLWuJ-52" style="edgeStyle=orthogonalEdgeStyle;rounded=0;orthogonalLoop=1;jettySize=auto;html=1;exitX=0.75;exitY=1;exitDx=0;exitDy=0;entryX=0.702;entryY=0.001;entryDx=0;entryDy=0;entryPerimeter=0;endArrow=open;endFill=0;startArrow=diamond;startFill=0;" edge="1" parent="1" source="uzs_12xQnQwQcAluXUmT-62" target="2L5cOaxwcJAvvOBqLWuJ-16">
          <mxGeometry relative="1" as="geometry" />
        </mxCell>
        <mxCell id="2L5cOaxwcJAvvOBqLWuJ-53" value="&lt;b&gt;&lt;font style=&quot;font-size: 11px;&quot;&gt;0..*&lt;/font&gt;&lt;/b&gt;" style="text;html=1;align=center;verticalAlign=middle;whiteSpace=wrap;rounded=0;" vertex="1" parent="1">
          <mxGeometry x="36.25" y="2823" width="51.5" height="25" as="geometry" />
        </mxCell>
        <mxCell id="2L5cOaxwcJAvvOBqLWuJ-61" value="&lt;b&gt;&lt;font style=&quot;font-size: 10px;&quot;&gt;1&lt;/font&gt;&lt;/b&gt;" style="text;html=1;align=center;verticalAlign=middle;whiteSpace=wrap;rounded=0;" vertex="1" parent="1">
          <mxGeometry x="110.75" y="2579" width="51.5" height="25" as="geometry" />
        </mxCell>
        <mxCell id="2L5cOaxwcJAvvOBqLWuJ-63" value="&lt;b&gt;&lt;font style=&quot;font-size: 9px;&quot;&gt;basket unique per store&lt;/font&gt;&lt;/b&gt;" style="text;html=1;align=center;verticalAlign=middle;whiteSpace=wrap;rounded=0;rotation=-90;" vertex="1" parent="1">
          <mxGeometry x="741.12" y="3129.13" width="114.25" height="16.5" as="geometry" />
        </mxCell>
        <mxCell id="2L5cOaxwcJAvvOBqLWuJ-67" value="&lt;b&gt;&lt;font style=&quot;font-size: 9px;&quot;&gt;1&lt;/font&gt;&lt;/b&gt;" style="text;html=1;align=center;verticalAlign=middle;whiteSpace=wrap;rounded=0;" vertex="1" parent="1">
          <mxGeometry x="492" y="2794" width="51.5" height="25" as="geometry" />
        </mxCell>
        <mxCell id="2L5cOaxwcJAvvOBqLWuJ-69" value="&lt;b&gt;&lt;font style=&quot;font-size: 9px;&quot;&gt;1&lt;/font&gt;&lt;/b&gt;" style="text;html=1;align=center;verticalAlign=middle;whiteSpace=wrap;rounded=0;" vertex="1" parent="1">
          <mxGeometry x="475.75" y="3052.5" width="51.5" height="25" as="geometry" />
        </mxCell>
        <mxCell id="2L5cOaxwcJAvvOBqLWuJ-70" value="&lt;b&gt;&lt;font style=&quot;font-size: 11px;&quot;&gt;0..*&lt;/font&gt;&lt;/b&gt;" style="text;html=1;align=center;verticalAlign=middle;whiteSpace=wrap;rounded=0;" vertex="1" parent="1">
          <mxGeometry x="603.5" y="2719" width="51.5" height="25" as="geometry" />
        </mxCell>
        <mxCell id="2L5cOaxwcJAvvOBqLWuJ-71" value="&lt;b&gt;&lt;font style=&quot;font-size: 9px;&quot;&gt;1&lt;/font&gt;&lt;/b&gt;" style="text;html=1;align=center;verticalAlign=middle;whiteSpace=wrap;rounded=0;" vertex="1" parent="1">
          <mxGeometry x="641.5" y="2716" width="51.5" height="25" as="geometry" />
        </mxCell>
        <mxCell id="2L5cOaxwcJAvvOBqLWuJ-72" value="&lt;b&gt;&lt;font style=&quot;font-size: 10px;&quot;&gt;0..*&lt;/font&gt;&lt;/b&gt;" style="text;html=1;align=center;verticalAlign=middle;whiteSpace=wrap;rounded=0;" vertex="1" parent="1">
          <mxGeometry x="747.5" y="2844" width="51.5" height="25" as="geometry" />
        </mxCell>
        <mxCell id="2L5cOaxwcJAvvOBqLWuJ-73" value="&lt;b&gt;&lt;font style=&quot;font-size: 11px;&quot;&gt;has&lt;/font&gt;&lt;/b&gt;" style="text;html=1;align=center;verticalAlign=middle;whiteSpace=wrap;rounded=0;rotation=-90;" vertex="1" parent="1">
          <mxGeometry x="775.99" y="2851" width="40.5" height="30" as="geometry" />
        </mxCell>
        <mxCell id="2L5cOaxwcJAvvOBqLWuJ-74" value="&lt;b&gt;&lt;font style=&quot;font-size: 10px;&quot;&gt;0..1&lt;/font&gt;&lt;/b&gt;" style="text;html=1;align=center;verticalAlign=middle;whiteSpace=wrap;rounded=0;" vertex="1" parent="1">
          <mxGeometry x="746.5" y="2865.5" width="51.5" height="25" as="geometry" />
        </mxCell>
        <mxCell id="2L5cOaxwcJAvvOBqLWuJ-75" value="&lt;b&gt;&lt;font style=&quot;font-size: 9px;&quot;&gt;1&lt;/font&gt;&lt;/b&gt;" style="text;html=1;align=center;verticalAlign=middle;whiteSpace=wrap;rounded=0;" vertex="1" parent="1">
          <mxGeometry x="539.25" y="2794" width="51.5" height="25" as="geometry" />
        </mxCell>
        <mxCell id="2L5cOaxwcJAvvOBqLWuJ-76" value="&lt;b&gt;&lt;font style=&quot;font-size: 9px;&quot;&gt;1&lt;/font&gt;&lt;/b&gt;" style="text;html=1;align=center;verticalAlign=middle;whiteSpace=wrap;rounded=0;" vertex="1" parent="1">
          <mxGeometry x="539.25" y="2893" width="51.5" height="25" as="geometry" />
        </mxCell>
        <mxCell id="2L5cOaxwcJAvvOBqLWuJ-77" value="&lt;b&gt;&lt;font style=&quot;font-size: 9px;&quot;&gt;1&lt;/font&gt;&lt;/b&gt;" style="text;html=1;align=center;verticalAlign=middle;whiteSpace=wrap;rounded=0;" vertex="1" parent="1">
          <mxGeometry x="713.25" y="2660" width="51.5" height="25" as="geometry" />
        </mxCell>
        <mxCell id="2L5cOaxwcJAvvOBqLWuJ-78" style="edgeStyle=orthogonalEdgeStyle;rounded=0;orthogonalLoop=1;jettySize=auto;html=1;exitX=0.25;exitY=0;exitDx=0;exitDy=0;entryX=0.14;entryY=1;entryDx=0;entryDy=0;entryPerimeter=0;endArrow=diamondThin;endFill=1;" edge="1" parent="1" source="uzs_12xQnQwQcAluXUmT-105" target="uzs_12xQnQwQcAluXUmT-68">
          <mxGeometry relative="1" as="geometry" />
        </mxCell>
        <mxCell id="2L5cOaxwcJAvvOBqLWuJ-80" value="&lt;b&gt;&lt;font style=&quot;font-size: 11px;&quot;&gt;1&lt;/font&gt;&lt;/b&gt;" style="text;html=1;align=center;verticalAlign=middle;whiteSpace=wrap;rounded=0;" vertex="1" parent="1">
          <mxGeometry x="306" y="2758" width="51.5" height="25" as="geometry" />
        </mxCell>
        <mxCell id="2L5cOaxwcJAvvOBqLWuJ-81" value="&lt;b&gt;&lt;font style=&quot;font-size: 11px;&quot;&gt;0..*&lt;/font&gt;&lt;/b&gt;" style="text;html=1;align=center;verticalAlign=middle;whiteSpace=wrap;rounded=0;" vertex="1" parent="1">
          <mxGeometry x="308.75" y="2882.75" width="51.5" height="25" as="geometry" />
        </mxCell>
        <mxCell id="2L5cOaxwcJAvvOBqLWuJ-82" value="&lt;b&gt;&lt;font style=&quot;font-size: 11px;&quot;&gt;has&lt;/font&gt;&lt;/b&gt;" style="text;html=1;align=center;verticalAlign=middle;whiteSpace=wrap;rounded=0;rotation=-90;" vertex="1" parent="1">
          <mxGeometry x="291.5" y="2806" width="40.5" height="30" as="geometry" />
        </mxCell>
        <mxCell id="2L5cOaxwcJAvvOBqLWuJ-85" style="edgeStyle=orthogonalEdgeStyle;rounded=0;orthogonalLoop=1;jettySize=auto;html=1;exitX=0.25;exitY=0;exitDx=0;exitDy=0;entryX=0.985;entryY=0.155;entryDx=0;entryDy=0;entryPerimeter=0;startArrow=diamondThin;startFill=1;endArrow=none;endFill=0;" edge="1" parent="1" source="uzs_12xQnQwQcAluXUmT-76" target="uzs_12xQnQwQcAluXUmT-82">
          <mxGeometry relative="1" as="geometry" />
        </mxCell>
        <mxCell id="2L5cOaxwcJAvvOBqLWuJ-86" style="edgeStyle=orthogonalEdgeStyle;rounded=0;orthogonalLoop=1;jettySize=auto;html=1;exitX=0;exitY=0.5;exitDx=0;exitDy=0;entryX=0.838;entryY=0.001;entryDx=0;entryDy=0;entryPerimeter=0;startArrow=diamondThin;startFill=0;endArrow=none;endFill=0;" edge="1" parent="1" source="uzs_12xQnQwQcAluXUmT-77" target="uzs_12xQnQwQcAluXUmT-86">
          <mxGeometry relative="1" as="geometry" />
        </mxCell>
        <mxCell id="2L5cOaxwcJAvvOBqLWuJ-87" value="&lt;b&gt;&lt;font style=&quot;font-size: 9px;&quot;&gt;0..1&lt;/font&gt;&lt;/b&gt;" style="text;html=1;align=center;verticalAlign=middle;whiteSpace=wrap;rounded=0;" vertex="1" parent="1">
          <mxGeometry x="147.5" y="3367" width="51.5" height="25" as="geometry" />
        </mxCell>
        <mxCell id="2L5cOaxwcJAvvOBqLWuJ-88" value="&lt;b&gt;&lt;font style=&quot;font-size: 10px;&quot;&gt;0..*&lt;/font&gt;&lt;/b&gt;" style="text;html=1;align=center;verticalAlign=middle;whiteSpace=wrap;rounded=0;" vertex="1" parent="1">
          <mxGeometry x="236" y="3352" width="51.5" height="25" as="geometry" />
        </mxCell>
        <mxCell id="2L5cOaxwcJAvvOBqLWuJ-89" value="&lt;b&gt;&lt;font style=&quot;font-size: 10px;&quot;&gt;manages&lt;/font&gt;&lt;/b&gt;" style="text;html=1;align=center;verticalAlign=middle;whiteSpace=wrap;rounded=0;rotation=0;" vertex="1" parent="1">
          <mxGeometry x="173.5" y="3330" width="90" height="30" as="geometry" />
        </mxCell>
        <mxCell id="2L5cOaxwcJAvvOBqLWuJ-92" style="edgeStyle=orthogonalEdgeStyle;rounded=0;orthogonalLoop=1;jettySize=auto;html=1;exitX=1;exitY=0.25;exitDx=0;exitDy=0;entryX=-0.006;entryY=0.783;entryDx=0;entryDy=0;entryPerimeter=0;endArrow=diamondThin;endFill=1;" edge="1" parent="1" source="uzs_12xQnQwQcAluXUmT-44" target="2L5cOaxwcJAvvOBqLWuJ-59">
          <mxGeometry relative="1" as="geometry">
            <Array as="points">
              <mxPoint x="210" y="2514" />
              <mxPoint x="210" y="2460" />
              <mxPoint x="230" y="2460" />
              <mxPoint x="230" y="2432" />
            </Array>
          </mxGeometry>
        </mxCell>
        <mxCell id="2L5cOaxwcJAvvOBqLWuJ-95" value="&lt;b&gt;&lt;font style=&quot;font-size: 10px;&quot;&gt;1&lt;/font&gt;&lt;/b&gt;" style="text;html=1;align=center;verticalAlign=middle;whiteSpace=wrap;rounded=0;" vertex="1" parent="1">
          <mxGeometry x="369" y="2374" width="51.5" height="25" as="geometry" />
        </mxCell>
        <mxCell id="2L5cOaxwcJAvvOBqLWuJ-96" value="&lt;b&gt;&lt;font style=&quot;font-size: 10px;&quot;&gt;1&lt;/font&gt;&lt;/b&gt;" style="text;html=1;align=center;verticalAlign=middle;whiteSpace=wrap;rounded=0;" vertex="1" parent="1">
          <mxGeometry x="367" y="2407.5" width="51.5" height="25" as="geometry" />
        </mxCell>
        <mxCell id="2L5cOaxwcJAvvOBqLWuJ-97" value="&lt;b&gt;&lt;font style=&quot;font-size: 10px;&quot;&gt;1&lt;/font&gt;&lt;/b&gt;" style="text;html=1;align=center;verticalAlign=middle;whiteSpace=wrap;rounded=0;" vertex="1" parent="1">
          <mxGeometry x="432.5" y="2403" width="51.5" height="25" as="geometry" />
        </mxCell>
        <mxCell id="2L5cOaxwcJAvvOBqLWuJ-98" value="&lt;b&gt;&lt;font style=&quot;font-size: 10px;&quot;&gt;1&lt;/font&gt;&lt;/b&gt;" style="text;html=1;align=center;verticalAlign=middle;whiteSpace=wrap;rounded=0;" vertex="1" parent="1">
          <mxGeometry x="519.25" y="2534" width="51.5" height="25" as="geometry" />
        </mxCell>
        <mxCell id="2L5cOaxwcJAvvOBqLWuJ-99" value="&lt;b&gt;&lt;font style=&quot;font-size: 10px;&quot;&gt;1&lt;/font&gt;&lt;/b&gt;" style="text;html=1;align=center;verticalAlign=middle;whiteSpace=wrap;rounded=0;" vertex="1" parent="1">
          <mxGeometry x="162.25" y="2510.5" width="51.5" height="25" as="geometry" />
        </mxCell>
        <mxCell id="2L5cOaxwcJAvvOBqLWuJ-100" value="&lt;b&gt;&lt;font style=&quot;font-size: 10px;&quot;&gt;1&lt;/font&gt;&lt;/b&gt;" style="text;html=1;align=center;verticalAlign=middle;whiteSpace=wrap;rounded=0;" vertex="1" parent="1">
          <mxGeometry x="216.5" y="2428" width="51.5" height="25" as="geometry" />
        </mxCell>
        <mxCell id="2L5cOaxwcJAvvOBqLWuJ-101" value="&lt;b&gt;&lt;font style=&quot;font-size: 10px;&quot;&gt;1&lt;/font&gt;&lt;/b&gt;" style="text;html=1;align=center;verticalAlign=middle;whiteSpace=wrap;rounded=0;" vertex="1" parent="1">
          <mxGeometry x="217" y="2382.5" width="51.5" height="25" as="geometry" />
        </mxCell>
        <mxCell id="2L5cOaxwcJAvvOBqLWuJ-104" value="&lt;b&gt;&lt;font style=&quot;font-size: 10px;&quot;&gt;1&lt;/font&gt;&lt;/b&gt;" style="text;html=1;align=center;verticalAlign=middle;whiteSpace=wrap;rounded=0;" vertex="1" parent="1">
          <mxGeometry x="211.75" y="2410.5" width="51.5" height="25" as="geometry" />
        </mxCell>
        <mxCell id="2L5cOaxwcJAvvOBqLWuJ-105" style="edgeStyle=orthogonalEdgeStyle;rounded=0;orthogonalLoop=1;jettySize=auto;html=1;exitX=0.75;exitY=0;exitDx=0;exitDy=0;entryX=0.169;entryY=0.988;entryDx=0;entryDy=0;entryPerimeter=0;endArrow=diamondThin;endFill=1;" edge="1" parent="1" source="uzs_12xQnQwQcAluXUmT-60" target="2L5cOaxwcJAvvOBqLWuJ-59">
          <mxGeometry relative="1" as="geometry">
            <Array as="points">
              <mxPoint x="181" y="2560" />
              <mxPoint x="274" y="2560" />
            </Array>
          </mxGeometry>
        </mxCell>
        <mxCell id="2L5cOaxwcJAvvOBqLWuJ-106" value="&lt;b&gt;&lt;font style=&quot;font-size: 10px;&quot;&gt;1&lt;/font&gt;&lt;/b&gt;" style="text;html=1;align=center;verticalAlign=middle;whiteSpace=wrap;rounded=0;" vertex="1" parent="1">
          <mxGeometry x="255" y="2434.5" width="51.5" height="25" as="geometry" />
        </mxCell>
        <mxCell id="2L5cOaxwcJAvvOBqLWuJ-107" value="&lt;b&gt;&lt;font style=&quot;font-size: 10px;&quot;&gt;1&lt;/font&gt;&lt;/b&gt;" style="text;html=1;align=center;verticalAlign=middle;whiteSpace=wrap;rounded=0;" vertex="1" parent="1">
          <mxGeometry x="147.5" y="2579.5" width="51.5" height="25" as="geometry" />
        </mxCell>
        <mxCell id="2L5cOaxwcJAvvOBqLWuJ-109" value="&lt;b&gt;&lt;font style=&quot;font-size: 10px;&quot;&gt;1&lt;/font&gt;&lt;/b&gt;" style="text;html=1;align=center;verticalAlign=middle;whiteSpace=wrap;rounded=0;" vertex="1" parent="1">
          <mxGeometry x="334.5" y="2434.5" width="51.5" height="25" as="geometry" />
        </mxCell>
        <mxCell id="2L5cOaxwcJAvvOBqLWuJ-110" value="&lt;b&gt;&lt;font style=&quot;font-size: 10px;&quot;&gt;1&lt;/font&gt;&lt;/b&gt;" style="text;html=1;align=center;verticalAlign=middle;whiteSpace=wrap;rounded=0;" vertex="1" parent="1">
          <mxGeometry x="672.5" y="2661" width="51.5" height="25" as="geometry" />
        </mxCell>
        <mxCell id="yi1XRv5YtWo2zAnBHeAV-1" value="" style="whiteSpace=wrap;html=1;fillColor=#E1D5E7;" vertex="1" parent="1">
          <mxGeometry x="484" y="3240" width="326" height="240" as="geometry" />
        </mxCell>
        <mxCell id="2L5cOaxwcJAvvOBqLWuJ-112" style="edgeStyle=orthogonalEdgeStyle;rounded=0;orthogonalLoop=1;jettySize=auto;html=1;exitX=0.5;exitY=0;exitDx=0;exitDy=0;entryX=0.217;entryY=0.991;entryDx=0;entryDy=0;entryPerimeter=0;endArrow=none;endFill=0;startArrow=diamondThin;startFill=1;" edge="1" parent="1" source="2L5cOaxwcJAvvOBqLWuJ-13" target="uzs_12xQnQwQcAluXUmT-87">
          <mxGeometry relative="1" as="geometry">
            <Array as="points">
              <mxPoint x="318" y="2320" />
              <mxPoint x="-40" y="2320" />
              <mxPoint x="-40" y="3460" />
              <mxPoint x="67" y="3460" />
            </Array>
          </mxGeometry>
        </mxCell>
        <mxCell id="2L5cOaxwcJAvvOBqLWuJ-113" value="&lt;b&gt;&lt;font style=&quot;font-size: 10px;&quot;&gt;1&lt;/font&gt;&lt;/b&gt;" style="text;html=1;align=center;verticalAlign=middle;whiteSpace=wrap;rounded=0;" vertex="1" parent="1">
          <mxGeometry x="284" y="2357.5" width="51.5" height="25" as="geometry" />
        </mxCell>
        <mxCell id="2L5cOaxwcJAvvOBqLWuJ-114" value="&lt;b&gt;&lt;font style=&quot;font-size: 10px;&quot;&gt;1&lt;/font&gt;&lt;/b&gt;" style="text;html=1;align=center;verticalAlign=middle;whiteSpace=wrap;rounded=0;" vertex="1" parent="1">
          <mxGeometry x="50.25" y="3437" width="51.5" height="25" as="geometry" />
        </mxCell>
        <mxCell id="2L5cOaxwcJAvvOBqLWuJ-117" value="&lt;b&gt;&lt;font style=&quot;font-size: 10px;&quot;&gt;1&lt;/font&gt;&lt;/b&gt;" style="text;html=1;align=center;verticalAlign=middle;whiteSpace=wrap;rounded=0;" vertex="1" parent="1">
          <mxGeometry x="338.5" y="2357.5" width="51.5" height="25" as="geometry" />
        </mxCell>
        <mxCell id="2L5cOaxwcJAvvOBqLWuJ-40" value="&lt;div&gt;&lt;b&gt;&amp;lt;&amp;lt;Interface&amp;gt;&amp;gt;&lt;br&gt;&lt;/b&gt;&lt;/div&gt;&lt;b&gt;SystemRole&lt;/b&gt;" style="swimlane;fontStyle=0;childLayout=stackLayout;horizontal=1;startSize=31;fillColor=#CCE5FF;horizontalStack=0;resizeParent=1;resizeParentMax=0;resizeLast=0;collapsible=1;marginBottom=0;whiteSpace=wrap;html=1;" vertex="1" parent="1">
          <mxGeometry x="491" y="3262" width="103" height="55" as="geometry" />
        </mxCell>
        <mxCell id="2L5cOaxwcJAvvOBqLWuJ-41" value="- userId: int" style="text;strokeColor=default;fillColor=#FFFFFF;align=left;verticalAlign=top;spacingLeft=4;spacingRight=4;overflow=hidden;rotatable=0;points=[[0,0.5],[1,0.5]];portConstraint=eastwest;whiteSpace=wrap;html=1;" vertex="1" parent="2L5cOaxwcJAvvOBqLWuJ-40">
          <mxGeometry y="31" width="103" height="24" as="geometry" />
        </mxCell>
        <mxCell id="uzs_12xQnQwQcAluXUmT-129" value="&lt;b&gt;&lt;font style=&quot;font-size: 11px;&quot;&gt;SystemManager&lt;/font&gt;&lt;/b&gt;" style="swimlane;fontStyle=0;childLayout=stackLayout;horizontal=1;startSize=26;fillColor=#CCE5FF;horizontalStack=0;resizeParent=1;resizeParentMax=0;resizeLast=0;collapsible=1;marginBottom=0;whiteSpace=wrap;html=1;" vertex="1" parent="1">
          <mxGeometry x="491" y="3339" width="115.5" height="50" as="geometry" />
        </mxCell>
        <mxCell id="uzs_12xQnQwQcAluXUmT-130" value="" style="text;strokeColor=default;fillColor=#FFFFFF;align=left;verticalAlign=top;spacingLeft=4;spacingRight=4;overflow=hidden;rotatable=0;points=[[0,0.5],[1,0.5]];portConstraint=eastwest;whiteSpace=wrap;html=1;" vertex="1" parent="uzs_12xQnQwQcAluXUmT-129">
          <mxGeometry y="26" width="115.5" height="24" as="geometry" />
        </mxCell>
        <mxCell id="uzs_12xQnQwQcAluXUmT-134" value="&lt;b&gt;StoreManager&lt;/b&gt;" style="swimlane;fontStyle=0;childLayout=stackLayout;horizontal=1;startSize=26;fillColor=#CCE5FF;horizontalStack=0;resizeParent=1;resizeParentMax=0;resizeLast=0;collapsible=1;marginBottom=0;whiteSpace=wrap;html=1;" vertex="1" parent="1">
          <mxGeometry x="490" y="3411" width="102.75" height="52" as="geometry" />
        </mxCell>
        <mxCell id="uzs_12xQnQwQcAluXUmT-137" value="&lt;font style=&quot;font-size: 12px;&quot;&gt;- permissions: int&lt;/font&gt;" style="text;strokeColor=default;fillColor=#FFFFFF;align=left;verticalAlign=top;spacingLeft=4;spacingRight=4;overflow=hidden;rotatable=0;points=[[0,0.5],[1,0.5]];portConstraint=eastwest;whiteSpace=wrap;html=1;" vertex="1" parent="uzs_12xQnQwQcAluXUmT-134">
          <mxGeometry y="26" width="102.75" height="26" as="geometry" />
        </mxCell>
        <mxCell id="uzs_12xQnQwQcAluXUmT-131" value="&lt;b&gt;StoreOwner&lt;/b&gt;" style="swimlane;fontStyle=0;childLayout=stackLayout;horizontal=1;startSize=26;fillColor=#CCE5FF;horizontalStack=0;resizeParent=1;resizeParentMax=0;resizeLast=0;collapsible=1;marginBottom=0;whiteSpace=wrap;html=1;" vertex="1" parent="1">
          <mxGeometry x="610" y="3402" width="90" height="52" as="geometry" />
        </mxCell>
        <mxCell id="uzs_12xQnQwQcAluXUmT-132" value="" style="text;strokeColor=default;fillColor=#FFFFFF;align=left;verticalAlign=top;spacingLeft=4;spacingRight=4;overflow=hidden;rotatable=0;points=[[0,0.5],[1,0.5]];portConstraint=eastwest;whiteSpace=wrap;html=1;" vertex="1" parent="uzs_12xQnQwQcAluXUmT-131">
          <mxGeometry y="26" width="90" height="26" as="geometry" />
        </mxCell>
        <mxCell id="uzs_12xQnQwQcAluXUmT-139" value="&lt;div&gt;&lt;b&gt;&amp;lt;&amp;lt;Interface&amp;gt;&amp;gt;&lt;br&gt;&lt;/b&gt;&lt;/div&gt;&lt;b&gt;StoreRole&lt;/b&gt;" style="swimlane;fontStyle=0;childLayout=stackLayout;horizontal=1;startSize=36;fillColor=#CCE5FF;horizontalStack=0;resizeParent=1;resizeParentMax=0;resizeLast=0;collapsible=1;marginBottom=0;whiteSpace=wrap;html=1;" vertex="1" parent="1">
          <mxGeometry x="716.5" y="3374" width="86" height="60" as="geometry" />
        </mxCell>
        <mxCell id="uzs_12xQnQwQcAluXUmT-140" value="- userId: int" style="text;strokeColor=default;fillColor=#FFFFFF;align=left;verticalAlign=top;spacingLeft=4;spacingRight=4;overflow=hidden;rotatable=0;points=[[0,0.5],[1,0.5]];portConstraint=eastwest;whiteSpace=wrap;html=1;" vertex="1" parent="uzs_12xQnQwQcAluXUmT-139">
          <mxGeometry y="36" width="86" height="24" as="geometry" />
        </mxCell>
        <mxCell id="2L5cOaxwcJAvvOBqLWuJ-10" value="&lt;b&gt;RoleFacade&lt;/b&gt;" style="swimlane;fontStyle=0;childLayout=stackLayout;horizontal=1;startSize=24;fillColor=#CCE5FF;horizontalStack=0;resizeParent=1;resizeParentMax=0;resizeLast=0;collapsible=1;marginBottom=0;whiteSpace=wrap;html=1;" vertex="1" parent="1">
          <mxGeometry x="639" y="3243.5" width="161" height="60" as="geometry" />
        </mxCell>
        <mxCell id="2L5cOaxwcJAvvOBqLWuJ-11" value="- storesToRoles: map&amp;lt;int,tree&amp;lt;StoreRole&amp;gt;&amp;gt;" style="text;strokeColor=default;fillColor=#FFFFFF;align=left;verticalAlign=top;spacingLeft=4;spacingRight=4;overflow=hidden;rotatable=0;points=[[0,0.5],[1,0.5]];portConstraint=eastwest;whiteSpace=wrap;html=1;" vertex="1" parent="2L5cOaxwcJAvvOBqLWuJ-10">
          <mxGeometry y="24" width="161" height="36" as="geometry" />
        </mxCell>
        <mxCell id="2L5cOaxwcJAvvOBqLWuJ-65" value="&lt;b&gt;&lt;font style=&quot;font-size: 9px;&quot;&gt;no circular&amp;nbsp;&lt;/font&gt;&lt;/b&gt;&lt;b style=&quot;background-color: initial;&quot;&gt;&lt;font style=&quot;font-size: 9px;&quot;&gt;connections&amp;nbsp;&lt;/font&gt;&lt;/b&gt;&lt;div&gt;&lt;b&gt;&lt;font style=&quot;font-size: 9px;&quot;&gt;between&amp;nbsp;&lt;/font&gt;&lt;/b&gt;&lt;b style=&quot;background-color: initial;&quot;&gt;&lt;font style=&quot;font-size: 9px;&quot;&gt;roles&lt;/font&gt;&lt;/b&gt;&lt;/div&gt;" style="text;html=1;align=center;verticalAlign=middle;whiteSpace=wrap;rounded=0;rotation=0;" vertex="1" parent="1">
          <mxGeometry x="610.5" y="3324" width="140" height="36" as="geometry" />
        </mxCell>
        <mxCell id="2L5cOaxwcJAvvOBqLWuJ-36" value="&lt;b&gt;&lt;font style=&quot;font-size: 9px;&quot;&gt;1..*&lt;/font&gt;&lt;/b&gt;" style="text;html=1;align=center;verticalAlign=middle;whiteSpace=wrap;rounded=0;" vertex="1" parent="1">
          <mxGeometry x="576.88" y="3274" width="51.5" height="25" as="geometry" />
        </mxCell>
        <mxCell id="2L5cOaxwcJAvvOBqLWuJ-118" value="&lt;b&gt;&lt;font style=&quot;font-size: 10px;&quot;&gt;1&lt;/font&gt;&lt;/b&gt;" style="text;html=1;align=center;verticalAlign=middle;whiteSpace=wrap;rounded=0;" vertex="1" parent="1">
          <mxGeometry x="780" y="3251" width="51.5" height="25" as="geometry" />
        </mxCell>
        <mxCell id="2L5cOaxwcJAvvOBqLWuJ-37" value="&lt;b&gt;&lt;font style=&quot;font-size: 9px;&quot;&gt;1&lt;/font&gt;&lt;/b&gt;" style="text;html=1;align=center;verticalAlign=middle;whiteSpace=wrap;rounded=0;" vertex="1" parent="1">
          <mxGeometry x="761.75" y="3296" width="51.5" height="25" as="geometry" />
        </mxCell>
        <mxCell id="2L5cOaxwcJAvvOBqLWuJ-39" value="&lt;b&gt;&lt;font style=&quot;font-size: 10px;&quot;&gt;0..*&lt;/font&gt;&lt;/b&gt;" style="text;html=1;align=center;verticalAlign=middle;whiteSpace=wrap;rounded=0;" vertex="1" parent="1">
          <mxGeometry x="766.5" y="3353" width="51.5" height="25" as="geometry" />
        </mxCell>
        <mxCell id="2L5cOaxwcJAvvOBqLWuJ-35" value="&lt;b&gt;&lt;font style=&quot;font-size: 9px;&quot;&gt;1&lt;/font&gt;&lt;/b&gt;" style="text;html=1;align=center;verticalAlign=middle;whiteSpace=wrap;rounded=0;" vertex="1" parent="1">
          <mxGeometry x="605.25" y="3271" width="51.5" height="25" as="geometry" />
        </mxCell>
        <mxCell id="2L5cOaxwcJAvvOBqLWuJ-42" style="edgeStyle=orthogonalEdgeStyle;rounded=0;orthogonalLoop=1;jettySize=auto;html=1;exitX=0.25;exitY=0;exitDx=0;exitDy=0;entryX=0.25;entryY=1;entryDx=0;entryDy=0;dashed=1;endArrow=block;endFill=0;" edge="1" parent="1" source="uzs_12xQnQwQcAluXUmT-129" target="2L5cOaxwcJAvvOBqLWuJ-40">
          <mxGeometry relative="1" as="geometry" />
        </mxCell>
        <mxCell id="2L5cOaxwcJAvvOBqLWuJ-34" style="edgeStyle=orthogonalEdgeStyle;rounded=0;orthogonalLoop=1;jettySize=auto;html=1;exitX=0.997;exitY=0.043;exitDx=0;exitDy=0;entryX=0;entryY=0.732;entryDx=0;entryDy=0;entryPerimeter=0;startArrow=none;startFill=0;endArrow=diamondThin;endFill=0;exitPerimeter=0;" edge="1" parent="1" source="2L5cOaxwcJAvvOBqLWuJ-41" target="2L5cOaxwcJAvvOBqLWuJ-11">
          <mxGeometry relative="1" as="geometry">
            <Array as="points">
              <mxPoint x="617" y="3294" />
            </Array>
          </mxGeometry>
        </mxCell>
        <mxCell id="2L5cOaxwcJAvvOBqLWuJ-33" style="edgeStyle=orthogonalEdgeStyle;rounded=0;orthogonalLoop=1;jettySize=auto;html=1;endArrow=none;endFill=0;startArrow=diamondThin;startFill=0;entryX=0.738;entryY=-0.003;entryDx=0;entryDy=0;entryPerimeter=0;exitX=0.875;exitY=1.052;exitDx=0;exitDy=0;exitPerimeter=0;" edge="1" parent="1" source="2L5cOaxwcJAvvOBqLWuJ-11" target="uzs_12xQnQwQcAluXUmT-139">
          <mxGeometry relative="1" as="geometry">
            <mxPoint x="780" y="3320" as="sourcePoint" />
            <mxPoint x="780" y="3370" as="targetPoint" />
            <Array as="points">
              <mxPoint x="780" y="3320" />
              <mxPoint x="780" y="3320" />
            </Array>
          </mxGeometry>
        </mxCell>
        <mxCell id="uzs_12xQnQwQcAluXUmT-158" style="edgeStyle=orthogonalEdgeStyle;rounded=0;orthogonalLoop=1;jettySize=auto;html=1;exitX=0.667;exitY=1.077;exitDx=0;exitDy=0;dashed=1;endArrow=block;endFill=0;entryX=0.738;entryY=1.154;entryDx=0;entryDy=0;entryPerimeter=0;exitPerimeter=0;" edge="1" parent="1" source="uzs_12xQnQwQcAluXUmT-132" target="uzs_12xQnQwQcAluXUmT-140">
          <mxGeometry relative="1" as="geometry">
            <mxPoint x="780" y="3370" as="targetPoint" />
            <Array as="points">
              <mxPoint x="670" y="3460" />
              <mxPoint x="780" y="3460" />
            </Array>
          </mxGeometry>
        </mxCell>
        <mxCell id="uzs_12xQnQwQcAluXUmT-159" style="edgeStyle=orthogonalEdgeStyle;rounded=0;orthogonalLoop=1;jettySize=auto;html=1;exitX=0.914;exitY=-0.026;exitDx=0;exitDy=0;dashed=1;endArrow=block;endFill=0;exitPerimeter=0;entryX=0.001;entryY=0.35;entryDx=0;entryDy=0;entryPerimeter=0;" edge="1" parent="1" source="uzs_12xQnQwQcAluXUmT-134" target="uzs_12xQnQwQcAluXUmT-139">
          <mxGeometry relative="1" as="geometry">
            <Array as="points">
              <mxPoint x="584" y="3395" />
            </Array>
            <mxPoint x="720" y="3380" as="targetPoint" />
          </mxGeometry>
        </mxCell>
        <mxCell id="2L5cOaxwcJAvvOBqLWuJ-116" style="edgeStyle=orthogonalEdgeStyle;rounded=0;orthogonalLoop=1;jettySize=auto;html=1;exitX=0.75;exitY=0;exitDx=0;exitDy=0;entryX=1;entryY=0.25;entryDx=0;entryDy=0;endArrow=none;endFill=0;startArrow=diamondThin;startFill=1;" edge="1" parent="1" source="2L5cOaxwcJAvvOBqLWuJ-13" target="2L5cOaxwcJAvvOBqLWuJ-10">
          <mxGeometry relative="1" as="geometry">
            <Array as="points">
              <mxPoint x="352" y="2320" />
              <mxPoint x="860" y="2320" />
              <mxPoint x="860" y="3255" />
            </Array>
          </mxGeometry>
        </mxCell>
        <mxCell id="yi1XRv5YtWo2zAnBHeAV-2" value="&lt;span style=&quot;font-size: 14px;&quot;&gt;&lt;b&gt;Roles&lt;/b&gt;&lt;/span&gt;" style="rounded=0;whiteSpace=wrap;html=1;fillColor=#FFF2CC;" vertex="1" parent="1">
          <mxGeometry x="484" y="3220" width="85" height="20" as="geometry" />
        </mxCell>
        <mxCell id="yi1XRv5YtWo2zAnBHeAV-3" style="edgeStyle=orthogonalEdgeStyle;rounded=0;orthogonalLoop=1;jettySize=auto;html=1;exitX=0.5;exitY=1;exitDx=0;exitDy=0;entryX=0.007;entryY=0.117;entryDx=0;entryDy=0;entryPerimeter=0;startArrow=diamondThin;startFill=0;endArrow=none;endFill=0;" edge="1" parent="1" source="2L5cOaxwcJAvvOBqLWuJ-13" target="uzs_12xQnQwQcAluXUmT-50">
          <mxGeometry relative="1" as="geometry" />
        </mxCell>
        <mxCell id="yi1XRv5YtWo2zAnBHeAV-5" value="&lt;b&gt;&lt;font style=&quot;font-size: 10px;&quot;&gt;1&lt;/font&gt;&lt;/b&gt;" style="text;html=1;align=center;verticalAlign=middle;whiteSpace=wrap;rounded=0;" vertex="1" parent="1">
          <mxGeometry x="303.25" y="2435" width="51.5" height="25" as="geometry" />
        </mxCell>
        <mxCell id="yi1XRv5YtWo2zAnBHeAV-6" value="&lt;b&gt;&lt;font style=&quot;font-size: 11px;&quot;&gt;0..*&lt;/font&gt;&lt;/b&gt;" style="text;html=1;align=center;verticalAlign=middle;whiteSpace=wrap;rounded=0;" vertex="1" parent="1">
          <mxGeometry x="625.25" y="2493.5" width="51.5" height="25" as="geometry" />
        </mxCell>
        <mxCell id="uzs_12xQnQwQcAluXUmT-230" value="&lt;b&gt;&lt;font style=&quot;font-size: 11px;&quot;&gt;contains&lt;/font&gt;&lt;/b&gt;" style="text;html=1;align=center;verticalAlign=middle;whiteSpace=wrap;rounded=0;rotation=-90;" vertex="1" parent="1">
          <mxGeometry x="161" y="3004" width="90" height="30" as="geometry" />
        </mxCell>
        <mxCell id="yi1XRv5YtWo2zAnBHeAV-7" style="edgeStyle=orthogonalEdgeStyle;rounded=0;orthogonalLoop=1;jettySize=auto;html=1;exitX=0;exitY=0.5;exitDx=0;exitDy=0;entryX=0.986;entryY=0.294;entryDx=0;entryDy=0;endArrow=open;endFill=0;startArrow=diamond;startFill=0;entryPerimeter=0;" edge="1" parent="1" source="uzs_12xQnQwQcAluXUmT-68" target="uzs_12xQnQwQcAluXUmT-74">
          <mxGeometry relative="1" as="geometry" />
        </mxCell>
        <mxCell id="yi1XRv5YtWo2zAnBHeAV-8" value="&lt;b&gt;&lt;font style=&quot;font-size: 11px;&quot;&gt;0..*&lt;/font&gt;&lt;/b&gt;" style="text;html=1;align=center;verticalAlign=middle;whiteSpace=wrap;rounded=0;" vertex="1" parent="1">
          <mxGeometry x="409.5" y="2792" width="51.5" height="25" as="geometry" />
        </mxCell>
        <mxCell id="yi1XRv5YtWo2zAnBHeAV-9" value="&lt;b&gt;&lt;font style=&quot;font-size: 11px;&quot;&gt;0..*&lt;/font&gt;&lt;/b&gt;" style="text;html=1;align=center;verticalAlign=middle;whiteSpace=wrap;rounded=0;" vertex="1" parent="1">
          <mxGeometry x="197.5" y="2744.5" width="51.5" height="25" as="geometry" />
        </mxCell>
        <mxCell id="yi1XRv5YtWo2zAnBHeAV-10" value="&lt;b&gt;&lt;font style=&quot;font-size: 11px;&quot;&gt;1&lt;/font&gt;&lt;/b&gt;" style="text;html=1;align=center;verticalAlign=middle;whiteSpace=wrap;rounded=0;" vertex="1" parent="1">
          <mxGeometry x="403.5" y="2756" width="51.5" height="25" as="geometry" />
        </mxCell>
        <mxCell id="yi1XRv5YtWo2zAnBHeAV-11" value="&lt;b&gt;&lt;font style=&quot;font-size: 11px;&quot;&gt;1&lt;/font&gt;&lt;/b&gt;" style="text;html=1;align=center;verticalAlign=middle;whiteSpace=wrap;rounded=0;" vertex="1" parent="1">
          <mxGeometry x="261.5" y="2742.5" width="51.5" height="25" as="geometry" />
        </mxCell>
        <mxCell id="84GO7_Jk9dI2FTe7MXe3-1" value="" style="whiteSpace=wrap;html=1;fillColor=#E1D5E7;" vertex="1" parent="1">
          <mxGeometry x="20" y="2400" width="180" height="100" as="geometry" />
        </mxCell>
        <mxCell id="uzs_12xQnQwQcAluXUmT-38" value="&lt;b&gt;&lt;font style=&quot;font-size: 11px;&quot;&gt;PaymentServiceHandler&lt;/font&gt;&lt;/b&gt;" style="swimlane;fontStyle=0;childLayout=stackLayout;horizontal=1;startSize=20;fillColor=#CCE5FF;horizontalStack=0;resizeParent=1;resizeParentMax=0;resizeLast=0;collapsible=1;marginBottom=0;whiteSpace=wrap;html=1;" vertex="1" parent="1">
          <mxGeometry x="25.5" y="2416" width="140" height="34" as="geometry" />
        </mxCell>
        <mxCell id="uzs_12xQnQwQcAluXUmT-39" value="" style="text;strokeColor=default;fillColor=#FFFFFF;align=left;verticalAlign=top;spacingLeft=4;spacingRight=4;overflow=hidden;rotatable=0;points=[[0,0.5],[1,0.5]];portConstraint=eastwest;whiteSpace=wrap;html=1;" vertex="1" parent="uzs_12xQnQwQcAluXUmT-38">
          <mxGeometry y="20" width="140" height="14" as="geometry" />
        </mxCell>
        <mxCell id="uzs_12xQnQwQcAluXUmT-40" value="&lt;b&gt;&lt;font style=&quot;font-size: 11px;&quot;&gt;DeliveryServiceHandler&lt;/font&gt;&lt;/b&gt;" style="swimlane;fontStyle=0;childLayout=stackLayout;horizontal=1;startSize=19;fillColor=#CCE5FF;horizontalStack=0;resizeParent=1;resizeParentMax=0;resizeLast=0;collapsible=1;marginBottom=0;whiteSpace=wrap;html=1;" vertex="1" parent="1">
          <mxGeometry x="24.5" y="2462" width="140" height="33" as="geometry" />
        </mxCell>
        <mxCell id="uzs_12xQnQwQcAluXUmT-41" value="" style="text;strokeColor=default;fillColor=#FFFFFF;align=left;verticalAlign=top;spacingLeft=4;spacingRight=4;overflow=hidden;rotatable=0;points=[[0,0.5],[1,0.5]];portConstraint=eastwest;whiteSpace=wrap;html=1;" vertex="1" parent="uzs_12xQnQwQcAluXUmT-40">
          <mxGeometry y="19" width="140" height="14" as="geometry" />
        </mxCell>
        <mxCell id="2L5cOaxwcJAvvOBqLWuJ-102" value="&lt;b&gt;&lt;font style=&quot;font-size: 10px;&quot;&gt;1&lt;/font&gt;&lt;/b&gt;" style="text;html=1;align=center;verticalAlign=middle;whiteSpace=wrap;rounded=0;" vertex="1" parent="1">
          <mxGeometry x="101" y="2396.5" width="51.5" height="25" as="geometry" />
        </mxCell>
        <mxCell id="2L5cOaxwcJAvvOBqLWuJ-103" value="&lt;b&gt;&lt;font style=&quot;font-size: 10px;&quot;&gt;1&lt;/font&gt;&lt;/b&gt;" style="text;html=1;align=center;verticalAlign=middle;whiteSpace=wrap;rounded=0;" vertex="1" parent="1">
          <mxGeometry x="145" y="2466" width="51.5" height="25" as="geometry" />
        </mxCell>
        <mxCell id="2L5cOaxwcJAvvOBqLWuJ-90" style="edgeStyle=orthogonalEdgeStyle;rounded=0;orthogonalLoop=1;jettySize=auto;html=1;entryX=0.002;entryY=0.095;entryDx=0;entryDy=0;entryPerimeter=0;startArrow=none;startFill=0;endArrow=diamondThin;endFill=1;exitX=0.781;exitY=-0.034;exitDx=0;exitDy=0;exitPerimeter=0;" edge="1" parent="1" source="uzs_12xQnQwQcAluXUmT-38" target="2L5cOaxwcJAvvOBqLWuJ-59">
          <mxGeometry relative="1" as="geometry">
            <mxPoint x="170" y="2406" as="sourcePoint" />
            <Array as="points">
              <mxPoint x="135" y="2406" />
              <mxPoint x="166" y="2406" />
            </Array>
          </mxGeometry>
        </mxCell>
        <mxCell id="2L5cOaxwcJAvvOBqLWuJ-91" style="edgeStyle=orthogonalEdgeStyle;rounded=0;orthogonalLoop=1;jettySize=auto;html=1;exitX=1;exitY=0.25;exitDx=0;exitDy=0;entryX=0.001;entryY=0.381;entryDx=0;entryDy=0;entryPerimeter=0;endArrow=diamondThin;endFill=1;" edge="1" parent="1" source="uzs_12xQnQwQcAluXUmT-40" target="2L5cOaxwcJAvvOBqLWuJ-59">
          <mxGeometry relative="1" as="geometry">
            <Array as="points">
              <mxPoint x="190" y="2470" />
              <mxPoint x="190" y="2417" />
            </Array>
          </mxGeometry>
        </mxCell>
        <mxCell id="84GO7_Jk9dI2FTe7MXe3-3" value="&lt;font style=&quot;font-size: 14px;&quot;&gt;&lt;b&gt;ThirdPartyHandlers&lt;/b&gt;&lt;/font&gt;" style="rounded=0;whiteSpace=wrap;html=1;fillColor=#FFF2CC;" vertex="1" parent="1">
          <mxGeometry x="19.5" y="2380" width="150.5" height="20" as="geometry" />
        </mxCell>
      </root>
    </mxGraphModel>
  </diagram>
</mxfile>
